<?xml version="1.0" encoding="UTF-8"?>
<!DOCTYPE svg PUBLIC "-//W3C//DTD SVG 1.1//EN" "http://www.w3.org/Graphics/SVG/1.1/DTD/svg11.dtd">
<svg xmlns="http://www.w3.org/2000/svg" version="1.1" width="500px" height="500px" style="shape-rendering:geometricPrecision; text-rendering:geometricPrecision; image-rendering:optimizeQuality; fill-rule:evenodd; clip-rule:evenodd" xmlns:xlink="http://www.w3.org/1999/xlink">
<g><path style="opacity:1" fill="#317869" d="M 253.5,96.5 C 257.225,96.5372 258.558,98.2038 257.5,101.5C 252.733,102.899 251.4,101.232 253.5,96.5 Z"/></g>
<g><path style="opacity:1" fill="#5e99a7" d="M 195.5,92.5 C 200.797,92.2552 205.13,94.0885 208.5,98C 220.167,98.3333 231.833,98.6667 243.5,99C 239.696,100.05 235.863,100.884 232,101.5C 223.743,99.8731 215.243,98.8731 206.5,98.5C 203.793,94.3533 200.126,93.3533 195.5,95.5C 195.5,94.5 195.5,93.5 195.5,92.5 Z"/></g>
<g><path style="opacity:1" fill="#6090b6" d="M 191.5,102.5 C 187.528,101.38 183.528,101.38 179.5,102.5C 179.5,101.167 179.5,99.8333 179.5,98.5C 183.163,98.9518 186.83,99.4518 190.5,100C 191.252,100.671 191.586,101.504 191.5,102.5 Z"/></g>
<g><path style="opacity:1" fill="#207f69" d="M 264.5,88.5 C 273.511,89.6703 282.511,91.1703 291.5,93C 300,96.0895 308.334,99.4228 316.5,103C 315.788,104.425 315.621,105.925 316,107.5C 314.263,105.375 312.096,104.542 309.5,105C 312.22,107.514 315.054,109.014 318,109.5C 319.836,112.515 322.003,115.181 324.5,117.5C 322.534,116.559 320.534,115.559 318.5,114.5C 317.537,114.97 317.537,115.637 318.5,116.5C 314.534,114.222 310.534,111.888 306.5,109.5C 305.702,109.957 305.369,110.624 305.5,111.5C 304.325,110.026 303.325,108.36 302.5,106.5C 299.828,105.497 297.162,104.497 294.5,103.5C 293.052,105.362 291.385,106.028 289.5,105.5C 288.121,108.259 286.787,110.925 285.5,113.5C 285.167,112.167 284.833,112.167 284.5,113.5C 284.679,115.954 284.013,118.121 282.5,120C 282.905,120.945 283.572,121.612 284.5,122C 281.123,122.724 278.79,124.724 277.5,128C 274.743,128.584 272.077,128.25 269.5,127C 268.177,126.184 267.511,125.017 267.5,123.5C 267.811,122.522 268.478,121.855 269.5,121.5C 270.696,121.846 270.696,122.346 269.5,123C 270.5,123.667 271.5,123.667 272.5,123C 271.729,121.002 272.395,119.335 274.5,118C 272.377,117.185 270.377,116.185 268.5,115C 269,114.5 269.5,114 270,113.5C 272.724,114.688 275.057,116.355 277,118.5C 277.941,116.939 279.108,115.605 280.5,114.5C 280.911,115.262 281.077,116.262 281,117.5C 284.437,112.543 287.271,107.209 289.5,101.5C 289.043,100.702 288.376,100.369 287.5,100.5C 286.081,99.5489 284.415,99.2155 282.5,99.5C 283.219,101.764 283.552,104.097 283.5,106.5C 281.1,109.24 278.1,110.073 274.5,109C 270.381,104.927 270.715,101.26 275.5,98C 273.246,96.8495 270.913,96.5162 268.5,97C 270.706,99.209 271.04,101.709 269.5,104.5C 267.044,107.08 264.544,107.08 262,104.5C 260.385,99.9103 261.885,97.077 266.5,96C 260.472,95.8303 254.472,95.3303 248.5,94.5C 248.291,93.914 247.957,93.414 247.5,93C 249.473,92.5045 251.473,92.3379 253.5,92.5C 253.5,91.5 253.5,90.5 253.5,89.5C 250.813,89.3359 248.146,89.5026 245.5,90C 246.167,90.3333 246.833,90.6667 247.5,91C 234.584,91.727 221.75,92.227 209,92.5C 205.667,91.1667 205.667,89.8333 209,88.5C 214.378,91.1041 219.711,91.1041 225,88.5C 231.226,91.1838 237.393,91.0172 243.5,88C 250.58,87.2055 257.58,87.3722 264.5,88.5 Z M 282.5,99.5 C 284.415,99.2155 286.081,99.5489 287.5,100.5C 286.167,102.5 284.833,104.5 283.5,106.5C 283.552,104.097 283.219,101.764 282.5,99.5 Z"/></g>
<g><path style="opacity:1" fill="#6a9695" d="M 191.5,102.5 C 192.167,102.5 192.5,102.833 192.5,103.5C 192.167,103.167 191.833,102.833 191.5,102.5 Z"/></g>
<g><path style="opacity:1" fill="#5a8c8d" d="M 192.5,103.5 C 194.857,103.337 197.19,103.503 199.5,104C 196.961,104.796 194.628,104.629 192.5,103.5 Z"/></g>
<g><path style="opacity:1" fill="#2a7260" d="M 201.5,102.5 C 202.5,102.5 203.5,102.5 204.5,102.5C 204.5,103.5 204.5,104.5 204.5,105.5C 203.5,105.5 202.5,105.5 201.5,105.5C 201.5,104.5 201.5,103.5 201.5,102.5 Z"/></g>
<g><path style="opacity:1" fill="#60bcbc" d="M 239.5,102.5 C 239.5,103.167 239.5,103.833 239.5,104.5C 236.67,104.963 234.003,105.629 231.5,106.5C 227.833,106.5 224.167,106.5 220.5,106.5C 215.747,105.016 210.747,104.182 205.5,104C 216.794,102.707 228.127,102.207 239.5,102.5 Z"/></g>
<g><path style="opacity:1" fill="#69857b" d="M 239.5,102.5 C 243.853,102.765 248.187,103.265 252.5,104C 251.263,104.232 250.263,104.732 249.5,105.5C 247.46,104.481 245.46,104.481 243.5,105.5C 245.396,106.466 247.396,106.799 249.5,106.5C 249.5,106.833 249.5,107.167 249.5,107.5C 223.537,107.229 197.537,107.562 171.5,108.5C 171.358,104.777 172.691,103.944 175.5,106C 190.496,106.5 205.496,106.667 220.5,106.5C 224.167,106.5 227.833,106.5 231.5,106.5C 234.698,107.036 237.365,106.369 239.5,104.5C 239.5,103.833 239.5,103.167 239.5,102.5 Z M 239.5,104.5 C 237.365,106.369 234.698,107.036 231.5,106.5C 234.003,105.629 236.67,104.963 239.5,104.5 Z"/></g>
<g><path style="opacity:1" fill="#8a9e9f" d="M 248.5,124.5 C 248.5,124.833 248.5,125.167 248.5,125.5C 236.13,125.091 223.797,125.091 211.5,125.5C 211.67,124.178 211.337,123.011 210.5,122C 207.021,119.791 203.354,118.291 199.5,117.5C 200.552,117.649 201.552,117.483 202.5,117C 202.167,116.667 201.833,116.333 201.5,116C 202.672,115.581 203.672,114.915 204.5,114C 202.473,113.502 200.473,113.669 198.5,114.5C 196.024,113.394 196.191,112.394 199,111.5C 211.801,112.306 224.634,112.806 237.5,113C 229.5,113.333 221.5,113.667 213.5,114C 214.059,114.725 214.392,115.558 214.5,116.5C 213.546,118.286 212.713,119.953 212,121.5C 216.983,123.128 222.15,123.961 227.5,124C 234.492,124.5 241.492,124.666 248.5,124.5 Z"/></g>
<g><path style="opacity:1" fill="#759b8f" d="M 159.5,115.5 C 164.801,116.177 170.134,116.677 175.5,117C 170.47,117.271 165.47,117.771 160.5,118.5C 158.197,118.124 157.863,117.124 159.5,115.5 Z"/></g>
<g><path style="opacity:1" fill="#849096" d="M 180.5,117.5 C 181.251,116.427 182.251,116.26 183.5,117C 182.552,117.483 181.552,117.649 180.5,117.5 Z"/></g>
<g><path style="opacity:1" fill="#8ba4a8" d="M 199.5,117.5 C 198.127,117.657 196.793,117.49 195.5,117C 197.066,116.235 198.399,116.402 199.5,117.5 Z"/></g>
<g><path style="opacity:1" fill="#0f775c" d="M 287.5,100.5 C 288.376,100.369 289.043,100.702 289.5,101.5C 287.271,107.209 284.437,112.543 281,117.5C 281.077,116.262 280.911,115.262 280.5,114.5C 279.108,115.605 277.941,116.939 277,118.5C 275.057,116.355 272.724,114.688 270,113.5C 269.5,114 269,114.5 268.5,115C 270.377,116.185 272.377,117.185 274.5,118C 272.395,119.335 271.729,121.002 272.5,123C 271.5,123.667 270.5,123.667 269.5,123C 270.696,122.346 270.696,121.846 269.5,121.5C 268.478,121.855 267.811,122.522 267.5,123.5C 265.211,121.994 262.877,120.827 260.5,120C 259.643,120.689 258.977,121.522 258.5,122.5C 259.427,123.906 260.427,125.406 261.5,127C 271.219,130.425 279.385,135.925 286,143.5C 290.488,142.688 290.655,143.522 286.5,146C 289.863,148.795 291.696,152.295 292,156.5C 289.695,152.696 287.195,149.03 284.5,145.5C 282.775,147.748 281.442,147.248 280.5,144C 278.922,142.906 277.255,142.072 275.5,141.5C 267.418,134.798 258.085,130.798 247.5,129.5C 247.5,129.167 247.5,128.833 247.5,128.5C 248.404,127.791 248.737,126.791 248.5,125.5C 248.5,125.167 248.5,124.833 248.5,124.5C 248.443,123.391 248.11,122.391 247.5,121.5C 247.5,120.833 247.5,120.167 247.5,119.5C 247.421,118.07 247.754,116.736 248.5,115.5C 251.446,114.679 254.446,114.679 257.5,115.5C 258.371,112.728 258.371,110.062 257.5,107.5C 254.833,107.5 252.167,107.5 249.5,107.5C 249.5,107.167 249.5,106.833 249.5,106.5C 249.5,106.167 249.5,105.833 249.5,105.5C 252.769,105.923 255.936,105.923 259,105.5C 266.79,107.484 274.29,110.151 281.5,113.5C 281.878,111.079 282.545,108.746 283.5,106.5C 284.833,104.5 286.167,102.5 287.5,100.5 Z"/></g>
<g><path style="opacity:1" fill="#bab2b1" d="M 247.5,119.5 C 247.5,120.167 247.5,120.833 247.5,121.5C 237.996,122.829 228.329,122.662 218.5,121C 215.211,119.041 214.877,116.875 217.5,114.5C 219.111,115.32 219.778,116.654 219.5,118.5C 228.996,118.494 238.329,118.827 247.5,119.5 Z"/></g>
<g><path style="opacity:1" fill="#117961" d="M 264.5,88.5 C 286.299,87.2085 305.966,93.2085 323.5,106.5C 323.67,107.822 323.337,108.989 322.5,110C 335.468,120.904 344.468,134.571 349.5,151C 348.551,151.617 347.718,151.451 347,150.5C 346.667,148.833 346.333,147.167 346,145.5C 345.28,143.745 344.113,142.911 342.5,143C 343.858,146.073 345.025,149.24 346,152.5C 346.671,153.252 347.504,153.586 348.5,153.5C 348.5,154.167 348.5,154.833 348.5,155.5C 348.443,156.609 348.11,157.609 347.5,158.5C 347.649,159.552 347.483,160.552 347,161.5C 343.404,144.638 335.904,129.972 324.5,117.5C 322.003,115.181 319.836,112.515 318,109.5C 315.054,109.014 312.22,107.514 309.5,105C 312.096,104.542 314.263,105.375 316,107.5C 315.621,105.925 315.788,104.425 316.5,103C 308.334,99.4228 300,96.0895 291.5,93C 282.511,91.1703 273.511,89.6703 264.5,88.5 Z"/></g>
<g><path style="opacity:1" fill="#07745c" d="M 305.5,111.5 C 308.002,112.737 310.002,114.57 311.5,117C 311.167,117.333 310.833,117.667 310.5,118C 312.525,119.677 314.859,120.677 317.5,121C 315.114,123.793 315.781,124.626 319.5,123.5C 320.7,124.531 322.034,125.365 323.5,126C 322.944,126.383 322.611,126.883 322.5,127.5C 322.833,128.833 323.167,128.833 323.5,127.5C 325.914,128.406 326.747,130.072 326,132.5C 325.167,131.5 324.333,130.5 323.5,129.5C 321.043,131.001 321.043,132.668 323.5,134.5C 321.267,136.285 320.267,138.285 320.5,140.5C 318.62,137.909 316.62,135.409 314.5,133C 313.5,132.333 312.5,132.333 311.5,133C 315.343,136.502 318.343,140.669 320.5,145.5C 320.5,147.5 320.5,149.5 320.5,151.5C 321.5,151.5 322.5,151.5 323.5,151.5C 323.785,153.288 323.452,154.955 322.5,156.5C 320.15,153.965 318.65,150.965 318,147.5C 315.942,148.109 315.109,149.109 315.5,150.5C 313.73,149.18 313.397,147.68 314.5,146C 312.34,143.142 309.673,140.975 306.5,139.5C 306.5,138.833 306.167,138.5 305.5,138.5C 304.167,138.5 302.833,138.5 301.5,138.5C 301.649,139.552 301.483,140.552 301,141.5C 300.261,139.779 299.427,138.113 298.5,136.5C 297.808,137.025 297.308,137.692 297,138.5C 296.727,136.899 296.227,135.399 295.5,134C 295.833,133.667 296.167,133.333 296.5,133C 293.27,131.276 292.936,129.276 295.5,127C 295.002,125.842 294.169,125.009 293,124.5C 291.7,125.452 290.533,125.452 289.5,124.5C 289.447,123.153 289.447,121.82 289.5,120.5C 289.833,120.5 290.167,120.5 290.5,120.5C 290.5,119.833 290.167,119.5 289.5,119.5C 289.158,118.662 288.492,118.328 287.5,118.5C 287.167,117.167 286.833,117.167 286.5,118.5C 285.549,117.081 285.216,115.415 285.5,113.5C 286.787,110.925 288.121,108.259 289.5,105.5C 291.385,106.028 293.052,105.362 294.5,103.5C 297.162,104.497 299.828,105.497 302.5,106.5C 303.325,108.36 304.325,110.026 305.5,111.5 Z M 290.5,120.5 C 293.097,120.533 294.097,121.533 293.5,123.5C 292.145,122.812 291.145,121.812 290.5,120.5 Z"/></g>
<g><path style="opacity:1" fill="#739497" d="M 247.5,128.5 C 247.5,128.833 247.5,129.167 247.5,129.5C 225.541,128.869 203.708,129.535 182,131.5C 181.228,131.355 180.561,131.022 180,130.5C 179.934,127.724 178.768,125.558 176.5,124C 169.131,123.274 161.798,123.441 154.5,124.5C 154.5,123.5 154.5,122.5 154.5,121.5C 159.119,122.314 163.786,122.647 168.5,122.5C 168.176,119.32 169.51,118.153 172.5,119C 176.504,122.031 180.504,125.031 184.5,128C 205.497,128.5 226.497,128.667 247.5,128.5 Z"/></g>
<g><path style="opacity:1" fill="#06785e" d="M 318.5,116.5 C 326.843,123.677 333.509,132.177 338.5,142C 337.591,143.789 337.424,145.623 338,147.5C 338.333,146.5 338.667,145.5 339,144.5C 340.509,147.006 342.009,149.506 343.5,152C 342.978,152.561 342.645,153.228 342.5,154C 345.013,160.983 345.847,168.15 345,175.5C 343.538,173.563 342.372,171.563 341.5,169.5C 341.768,167.901 341.434,166.568 340.5,165.5C 340.5,164.5 340.5,163.5 340.5,162.5C 340.354,160.22 340.687,157.887 341.5,155.5C 340.041,155.433 338.708,155.766 337.5,156.5C 336.444,152.832 335.278,149.165 334,145.5C 332.866,149.14 331.866,148.807 331,144.5C 330.5,145 330,145.5 329.5,146C 329.519,147.521 329.852,149.021 330.5,150.5C 330.66,152.199 330.494,153.866 330,155.5C 329.667,154.833 329.333,154.167 329,153.5C 328.585,155.291 327.585,156.624 326,157.5C 325.333,156.5 325.333,155.5 326,154.5C 326.654,155.696 327.154,155.696 327.5,154.5C 327.037,150.938 325.704,147.772 323.5,145C 323.833,144.667 324.167,144.333 324.5,144C 323.135,144.143 321.802,144.643 320.5,145.5C 318.343,140.669 315.343,136.502 311.5,133C 312.5,132.333 313.5,132.333 314.5,133C 316.62,135.409 318.62,137.909 320.5,140.5C 320.267,138.285 321.267,136.285 323.5,134.5C 321.043,132.668 321.043,131.001 323.5,129.5C 324.333,130.5 325.167,131.5 326,132.5C 326.747,130.072 325.914,128.406 323.5,127.5C 323.167,127.5 322.833,127.5 322.5,127.5C 322.611,126.883 322.944,126.383 323.5,126C 322.034,125.365 320.7,124.531 319.5,123.5C 315.781,124.626 315.114,123.793 317.5,121C 314.859,120.677 312.525,119.677 310.5,118C 310.833,117.667 311.167,117.333 311.5,117C 310.002,114.57 308.002,112.737 305.5,111.5C 305.369,110.624 305.702,109.957 306.5,109.5C 310.534,111.888 314.534,114.222 318.5,116.5 Z"/></g>
<g><path style="opacity:1" fill="#1b725c" d="M 257.5,134.5 C 260.588,134.377 263.255,135.377 265.5,137.5C 264.917,139.002 264.084,140.335 263,141.5C 260.815,140.33 258.649,139.164 256.5,138C 257.337,136.989 257.67,135.822 257.5,134.5 Z"/></g>
<g><path style="opacity:1" fill="#2b7561" d="M 235.5,131.5 C 242.23,131.226 248.897,131.726 255.5,133C 256.833,134.333 256.833,135.667 255.5,137C 243.124,134.907 231.457,136.907 220.5,143C 218.818,145.218 216.818,147.051 214.5,148.5C 212.5,147.833 211.167,146.5 210.5,144.5C 203.656,143.781 196.823,143.114 190,142.5C 188.739,142.759 187.739,143.426 187,144.5C 186.5,144 186,143.5 185.5,143C 181.789,142.825 178.122,142.325 174.5,141.5C 173.691,139.929 173.357,138.262 173.5,136.5C 166.285,136.052 159.285,136.718 152.5,138.5C 152.007,133.803 153.674,132.637 157.5,135C 163.167,135.333 168.833,135.667 174.5,136C 175.406,137.699 175.739,139.533 175.5,141.5C 179.39,141.728 183.224,141.394 187,140.5C 195.448,141.912 203.948,142.412 212.5,142C 219.729,137.383 227.396,133.883 235.5,131.5 Z"/></g>
<g><path style="opacity:1" fill="#3e7ca8" d="M 231.5,141.5 C 233.438,139.837 235.772,139.171 238.5,139.5C 238.5,140.833 238.5,142.167 238.5,143.5C 236.5,143.833 234.5,144.167 232.5,144.5C 232.737,143.209 232.404,142.209 231.5,141.5 Z"/></g>
<g><path style="opacity:1" fill="#1e7662" d="M 265.5,143.5 C 264.5,143.5 263.5,143.5 262.5,143.5C 261.833,143.5 261.5,143.167 261.5,142.5C 262.552,142.649 263.552,142.483 264.5,142C 265.155,140.513 266.155,139.347 267.5,138.5C 273.351,140.331 274.185,142.998 270,146.5C 268.871,144.859 267.371,143.859 265.5,143.5 Z"/></g>
<g><path style="opacity:1" fill="#237162" d="M 231.5,141.5 C 232.167,145.5 230.5,147.167 226.5,146.5C 226.672,145.508 226.338,144.842 225.5,144.5C 225.167,144.5 224.833,144.5 224.5,144.5C 225.883,141.09 228.217,140.09 231.5,141.5 Z"/></g>
<g><path style="opacity:1" fill="#3979bc" d="M 240.5,138.5 C 244.897,138.425 249.23,138.925 253.5,140C 254.603,141.68 254.27,143.18 252.5,144.5C 248.441,142.469 244.608,142.135 241,143.5C 239.964,141.701 239.797,140.034 240.5,138.5 Z"/></g>
<g><path style="opacity:1" fill="#4a88bc" d="M 261.5,142.5 C 261.5,143.167 261.833,143.5 262.5,143.5C 261.766,144.708 261.433,146.041 261.5,147.5C 252.273,144.47 252.273,142.803 261.5,142.5 Z"/></g>
<g><path style="opacity:1" fill="#04755b" d="M 284.5,113.5 C 284.833,113.5 285.167,113.5 285.5,113.5C 285.216,115.415 285.549,117.081 286.5,118.5C 286.833,118.5 287.167,118.5 287.5,118.5C 287.842,119.338 288.508,119.672 289.5,119.5C 289.5,119.833 289.5,120.167 289.5,120.5C 289.447,121.82 289.447,123.153 289.5,124.5C 290.533,125.452 291.7,125.452 293,124.5C 294.169,125.009 295.002,125.842 295.5,127C 292.936,129.276 293.27,131.276 296.5,133C 296.167,133.333 295.833,133.667 295.5,134C 296.227,135.399 296.727,136.899 297,138.5C 297.308,137.692 297.808,137.025 298.5,136.5C 299.427,138.113 300.261,139.779 301,141.5C 301.483,140.552 301.649,139.552 301.5,138.5C 302.833,138.5 304.167,138.5 305.5,138.5C 305.5,138.833 305.5,139.167 305.5,139.5C 304.209,140.473 304.209,141.473 305.5,142.5C 305.023,143.478 304.357,144.311 303.5,145C 306.167,145.667 306.167,146.333 303.5,147C 306.255,148.788 307.922,147.955 308.5,144.5C 308.895,147.686 309.895,150.686 311.5,153.5C 310.09,154.569 309.09,155.903 308.5,157.5C 307.698,156.048 307.198,154.382 307,152.5C 305.333,155.167 303.667,155.167 302,152.5C 301.333,150.5 300.667,148.5 300,146.5C 299.49,149.005 297.99,150.505 295.5,151C 300.975,152.607 303.308,156.107 302.5,161.5C 301.833,161.167 301.167,160.833 300.5,160.5C 299.833,158.5 299.167,156.5 298.5,154.5C 295.936,156.019 295.936,157.519 298.5,159C 297.185,160.395 297.519,161.395 299.5,162C 298.062,162.219 296.729,162.719 295.5,163.5C 297.037,167.063 296.704,170.397 294.5,173.5C 293.808,172.975 293.308,172.308 293,171.5C 290.283,182.444 292.617,184.444 300,177.5C 300.494,175.866 300.66,174.199 300.5,172.5C 301.167,174.833 301.833,177.167 302.5,179.5C 302.167,180.167 301.833,180.833 301.5,181.5C 300.5,181.5 299.5,181.5 298.5,181.5C 297.833,181.5 297.5,181.833 297.5,182.5C 297.167,182.5 296.833,182.5 296.5,182.5C 294.883,183.038 293.216,183.371 291.5,183.5C 292.649,166.937 287.316,152.937 275.5,141.5C 277.255,142.072 278.922,142.906 280.5,144C 281.442,147.248 282.775,147.748 284.5,145.5C 287.195,149.03 289.695,152.696 292,156.5C 291.696,152.295 289.863,148.795 286.5,146C 290.655,143.522 290.488,142.688 286,143.5C 279.385,135.925 271.219,130.425 261.5,127C 260.427,125.406 259.427,123.906 258.5,122.5C 258.977,121.522 259.643,120.689 260.5,120C 262.877,120.827 265.211,121.994 267.5,123.5C 267.511,125.017 268.177,126.184 269.5,127C 272.077,128.25 274.743,128.584 277.5,128C 278.79,124.724 281.123,122.724 284.5,122C 283.572,121.612 282.905,120.945 282.5,120C 284.013,118.121 284.679,115.954 284.5,113.5 Z"/></g>
<g><path style="opacity:1" fill="#0f725b" d="M 323.5,106.5 C 346.165,126.516 356.499,151.516 354.5,181.5C 351.983,179.923 351.983,178.09 354.5,176C 353.751,174.266 353.251,172.433 353,170.5C 352.583,169.244 351.75,168.577 350.5,168.5C 350.013,167.527 349.513,166.527 349,165.5C 348.826,170.684 348.326,175.684 347.5,180.5C 347.075,173.335 347.742,166.335 349.5,159.5C 350.507,156.857 350.507,156.523 349.5,158.5C 348.833,158.5 348.167,158.5 347.5,158.5C 348.11,157.609 348.443,156.609 348.5,155.5C 349.833,154.833 349.833,154.167 348.5,153.5C 347.504,153.586 346.671,153.252 346,152.5C 345.025,149.24 343.858,146.073 342.5,143C 344.113,142.911 345.28,143.745 346,145.5C 346.333,147.167 346.667,148.833 347,150.5C 347.718,151.451 348.551,151.617 349.5,151C 344.468,134.571 335.468,120.904 322.5,110C 323.337,108.989 323.67,107.822 323.5,106.5 Z"/></g>
<g><path style="opacity:1" fill="#4682b7" d="M 224.5,144.5 C 224.833,144.5 225.167,144.5 225.5,144.5C 225.328,145.492 225.662,146.158 226.5,146.5C 223.536,148.962 220.703,151.629 218,154.5C 217.617,153.944 217.117,153.611 216.5,153.5C 213.806,150.706 214.306,149.706 218,150.5C 218.728,146.939 220.894,144.939 224.5,144.5 Z"/></g>
<g><path style="opacity:1" fill="#91574f" d="M 262.5,143.5 C 263.5,143.5 264.5,143.5 265.5,143.5C 266.625,145.129 267.959,146.629 269.5,148C 266.743,152.156 264.076,151.989 261.5,147.5C 261.433,146.041 261.766,144.708 262.5,143.5 Z"/></g>
<g><path style="opacity:1" fill="#267b67" d="M 265.5,162.5 C 262.744,160.553 260.078,158.386 257.5,156C 255.593,154.878 253.593,154.045 251.5,153.5C 251.881,152.069 252.881,151.236 254.5,151C 253.552,150.517 252.552,150.351 251.5,150.5C 251.281,149.325 251.614,148.325 252.5,147.5C 257.455,148.976 261.788,151.476 265.5,155C 264.672,155.915 263.672,156.581 262.5,157C 264.607,158.264 265.607,160.097 265.5,162.5 Z"/></g>
<g><path style="opacity:1" fill="#b68682" d="M 206.5,154.5 C 206.842,155.338 207.508,155.672 208.5,155.5C 200.821,155.382 192.988,155.715 185,156.5C 182.774,153.615 179.94,151.448 176.5,150C 163.644,148.939 150.978,149.439 138.5,151.5C 138.01,149.052 138.843,147.385 141,146.5C 146.029,147.756 151.195,148.422 156.5,148.5C 164.64,148.258 172.64,147.924 180.5,147.5C 180.297,149.39 180.963,150.89 182.5,152C 190.24,154.316 198.24,155.15 206.5,154.5 Z"/></g>
<g><path style="opacity:1" fill="#237669" d="M 250.5,151.5 C 247.5,151.5 244.5,151.5 241.5,151.5C 241.167,151.5 240.833,151.5 240.5,151.5C 238.694,152.024 237.028,152.691 235.5,153.5C 234.167,153.833 232.833,154.167 231.5,154.5C 230.833,153.167 229.833,152.167 228.5,151.5C 229.122,149.665 230.456,148.498 232.5,148C 235.503,146.69 238.503,146.524 241.5,147.5C 240.413,149.105 241.079,149.771 243.5,149.5C 246.602,149.503 246.935,149.003 244.5,148C 245.025,147.308 245.692,146.808 246.5,146.5C 247.152,148.808 248.485,150.475 250.5,151.5 Z"/></g>
<g><path style="opacity:1" fill="#517faf" d="M 216.5,153.5 C 217.167,157.5 215.5,159.167 211.5,158.5C 211.5,157.833 211.167,157.5 210.5,157.5C 210.5,156.167 209.833,155.5 208.5,155.5C 207.508,155.672 206.842,155.338 206.5,154.5C 209.157,154.838 211.49,154.171 213.5,152.5C 214.417,153.127 215.417,153.461 216.5,153.5 Z"/></g>
<g><path style="opacity:1" fill="#12705a" d="M 282.5,201.5 C 282.027,200.094 281.027,199.427 279.5,199.5C 279.5,198.833 279.5,198.167 279.5,197.5C 287.29,183.693 286.957,170.359 278.5,157.5C 276.807,153.628 274.474,150.128 271.5,147C 272.667,145.833 273.833,144.667 275,143.5C 291.228,161.168 293.728,180.501 282.5,201.5 Z"/></g>
<g><path style="opacity:1" fill="#03775b" d="M 308.5,157.5 C 309.978,157.238 311.311,157.571 312.5,158.5C 312.723,159.967 313.056,161.467 313.5,163C 314.816,163.528 315.483,163.028 315.5,161.5C 316.496,161.414 317.329,161.748 318,162.5C 319.57,159.138 321.403,158.804 323.5,161.5C 323.5,162.167 323.5,162.833 323.5,163.5C 323.552,165.903 323.219,168.236 322.5,170.5C 321.202,174.458 319.869,174.458 318.5,170.5C 317.675,169.614 316.675,169.281 315.5,169.5C 315.5,168.5 315.5,167.5 315.5,166.5C 313.533,166.261 311.699,166.594 310,167.5C 309.667,165.5 309.333,163.5 309,161.5C 308.075,162.047 307.242,162.713 306.5,163.5C 308.501,170.731 307.001,171.397 302,165.5C 301.939,167.686 301.772,169.686 301.5,171.5C 300.833,171.5 300.5,171.833 300.5,172.5C 300.66,174.199 300.494,175.866 300,177.5C 292.617,184.444 290.283,182.444 293,171.5C 293.308,172.308 293.808,172.975 294.5,173.5C 296.704,170.397 297.037,167.063 295.5,163.5C 296.729,162.719 298.062,162.219 299.5,162C 297.519,161.395 297.185,160.395 298.5,159C 295.936,157.519 295.936,156.019 298.5,154.5C 299.167,156.5 299.833,158.5 300.5,160.5C 301.167,160.833 301.833,161.167 302.5,161.5C 303.308,156.107 300.975,152.607 295.5,151C 297.99,150.505 299.49,149.005 300,146.5C 300.667,148.5 301.333,150.5 302,152.5C 303.667,155.167 305.333,155.167 307,152.5C 307.198,154.382 307.698,156.048 308.5,157.5 Z"/></g>
<g><path style="opacity:1" fill="#0a6f5b" d="M 305.5,139.5 C 305.833,139.5 306.167,139.5 306.5,139.5C 309.673,140.975 312.34,143.142 314.5,146C 313.397,147.68 313.73,149.18 315.5,150.5C 315.109,149.109 315.942,148.109 318,147.5C 318.65,150.965 320.15,153.965 322.5,156.5C 323.452,154.955 323.785,153.288 323.5,151.5C 322.5,151.5 321.5,151.5 320.5,151.5C 320.5,149.5 320.5,147.5 320.5,145.5C 321.802,144.643 323.135,144.143 324.5,144C 324.167,144.333 323.833,144.667 323.5,145C 325.704,147.772 327.037,150.938 327.5,154.5C 327.154,155.696 326.654,155.696 326,154.5C 325.333,155.5 325.333,156.5 326,157.5C 327.585,156.624 328.585,155.291 329,153.5C 329.333,154.167 329.667,154.833 330,155.5C 330.494,153.866 330.66,152.199 330.5,150.5C 329.852,149.021 329.519,147.521 329.5,146C 330,145.5 330.5,145 331,144.5C 331.866,148.807 332.866,149.14 334,145.5C 335.278,149.165 336.444,152.832 337.5,156.5C 335.186,157.682 332.852,159.015 330.5,160.5C 330.977,161.478 331.643,162.311 332.5,163C 330.392,163.36 328.392,164.027 326.5,165C 326.201,166.32 326.034,167.82 326,169.5C 325.047,171.373 323.88,171.706 322.5,170.5C 323.219,168.236 323.552,165.903 323.5,163.5C 324.833,162.833 324.833,162.167 323.5,161.5C 321.403,158.804 319.57,159.138 318,162.5C 317.329,161.748 316.496,161.414 315.5,161.5C 315.483,163.028 314.816,163.528 313.5,163C 313.056,161.467 312.723,159.967 312.5,158.5C 311.311,157.571 309.978,157.238 308.5,157.5C 309.09,155.903 310.09,154.569 311.5,153.5C 309.895,150.686 308.895,147.686 308.5,144.5C 307.922,147.955 306.255,148.788 303.5,147C 306.167,146.333 306.167,145.667 303.5,145C 304.357,144.311 305.023,143.478 305.5,142.5C 304.209,141.473 304.209,140.473 305.5,139.5 Z"/></g>
<g><path style="opacity:1" fill="#4b84b6" d="M 210.5,157.5 C 211.167,157.5 211.5,157.833 211.5,158.5C 214.23,161.051 213.563,162.384 209.5,162.5C 208.294,160.563 208.627,158.896 210.5,157.5 Z"/></g>
<g><path style="opacity:1" fill="#547187" d="M 240.5,151.5 C 240.833,152.833 241.167,152.833 241.5,151.5C 244.5,151.5 247.5,151.5 250.5,151.5C 250.328,152.492 250.662,153.158 251.5,153.5C 253.593,154.045 255.593,154.878 257.5,156C 260.078,158.386 262.744,160.553 265.5,162.5C 265.604,164.703 266.27,166.703 267.5,168.5C 268.1,169.9 269.1,170.9 270.5,171.5C 270.038,177.944 268.538,184.277 266,190.5C 264.667,191.167 263.333,191.833 262,192.5C 261.837,194.676 261.004,196.509 259.5,198C 255.035,199.661 250.701,201.494 246.5,203.5C 246.167,203.5 245.833,203.5 245.5,203.5C 242.813,203.664 240.146,203.497 237.5,203C 236.944,202.617 236.611,202.117 236.5,201.5C 238.764,202.219 241.097,202.552 243.5,202.5C 243.371,200.784 243.038,199.117 242.5,197.5C 243.492,197.672 244.158,197.338 244.5,196.5C 245.5,196.5 246.5,196.5 247.5,196.5C 248.791,196.737 249.791,196.404 250.5,195.5C 251.492,195.672 252.158,195.338 252.5,194.5C 253.167,194.5 253.833,194.5 254.5,194.5C 255.401,193.71 256.068,192.71 256.5,191.5C 257.167,191.5 257.5,191.167 257.5,190.5C 258.167,190.5 258.5,190.167 258.5,189.5C 259.167,189.5 259.5,189.167 259.5,188.5C 260.338,188.158 260.672,187.492 260.5,186.5C 262.074,184.898 262.741,182.898 262.5,180.5C 263.675,180.719 264.675,180.386 265.5,179.5C 263.397,175.774 261.897,171.774 261,167.5C 259.961,166.29 258.794,165.29 257.5,164.5C 257.5,163.833 257.167,163.5 256.5,163.5C 256.33,162.178 256.663,161.011 257.5,160C 256.101,159.405 254.768,159.572 253.5,160.5C 247.022,156.6 240.688,156.6 234.5,160.5C 232.973,160.427 231.973,161.094 231.5,162.5C 230.833,162.5 230.5,162.833 230.5,163.5C 229.508,163.672 228.842,163.338 228.5,162.5C 230.819,158.156 234.486,155.49 239.5,154.5C 238.311,153.571 236.978,153.238 235.5,153.5C 237.028,152.691 238.694,152.024 240.5,151.5 Z M 256.5,163.5 C 249.683,159.427 242.35,158.427 234.5,160.5C 240.688,156.6 247.022,156.6 253.5,160.5C 254.768,159.572 256.101,159.405 257.5,160C 256.663,161.011 256.33,162.178 256.5,163.5 Z M 234.5,160.5 C 234.027,161.906 233.027,162.573 231.5,162.5C 231.973,161.094 232.973,160.427 234.5,160.5 Z"/></g>
<g><path style="opacity:1" fill="#4a7b78" d="M 203.5,157.5 C 204.627,158.122 205.627,158.955 206.5,160C 204.999,161.252 203.332,162.252 201.5,163C 188.142,163.241 174.808,163.741 161.5,164.5C 161.5,163.5 161.5,162.5 161.5,161.5C 174.467,162.61 187.467,162.777 200.5,162C 201.883,160.729 202.883,159.229 203.5,157.5 Z"/></g>
<g><path style="opacity:1" fill="#3d786c" d="M 158.5,168.5 C 156.391,167.609 154.391,166.442 152.5,165C 147.339,164.064 142.339,164.564 137.5,166.5C 135.734,166.566 134.734,165.732 134.5,164C 135.631,161.181 137.298,160.847 139.5,163C 144.167,163.333 148.833,163.667 153.5,164C 155.618,165.049 157.284,166.549 158.5,168.5 Z"/></g>
<g><path style="opacity:1" fill="#367bb1" d="M 278.5,157.5 C 278.714,159.144 278.38,160.644 277.5,162C 279.558,163.49 280.891,165.49 281.5,168C 280.095,169.269 278.429,169.769 276.5,169.5C 275.667,167.248 275.667,165.081 276.5,163C 271.632,161.557 271.298,159.39 275.5,156.5C 276.417,157.127 277.417,157.461 278.5,157.5 Z"/></g>
<g><path style="opacity:1" fill="#227b6c" d="M 228.5,151.5 C 227.969,153.624 226.635,155.124 224.5,156C 225.094,156.464 225.761,156.631 226.5,156.5C 224.577,159.603 222.41,162.603 220,165.5C 217.882,170.953 217.048,176.62 217.5,182.5C 216.833,182.5 216.167,182.5 215.5,182.5C 215.5,179.167 215.5,175.833 215.5,172.5C 214.5,172.5 213.5,172.5 212.5,172.5C 214.068,163.035 218.901,155.702 227,150.5C 227.383,151.056 227.883,151.389 228.5,151.5 Z"/></g>
<g><path style="opacity:1" fill="#554e53" d="M 226.5,162.5 C 227.833,164.5 227.833,166.5 226.5,168.5C 225.662,168.842 225.328,169.508 225.5,170.5C 224.167,171.167 224.167,171.833 225.5,172.5C 225.443,173.609 225.11,174.609 224.5,175.5C 223.167,176.167 223.167,176.833 224.5,177.5C 224.629,179.216 224.962,180.883 225.5,182.5C 224.167,182.833 224.167,183.167 225.5,183.5C 225.5,184.167 225.5,184.833 225.5,185.5C 225.427,187.027 226.094,188.027 227.5,188.5C 228.167,191.167 229.833,192.833 232.5,193.5C 232.973,194.906 233.973,195.573 235.5,195.5C 236.5,196.833 237.5,196.833 238.5,195.5C 239.609,195.557 240.609,195.89 241.5,196.5C 241.5,196.833 241.5,197.167 241.5,197.5C 241.03,198.693 240.03,199.36 238.5,199.5C 234.65,199.081 231.65,197.415 229.5,194.5C 229.5,193.833 229.167,193.5 228.5,193.5C 224.585,190.877 222.252,187.21 221.5,182.5C 222.938,180.655 222.604,179.489 220.5,179C 220.392,172.654 222.392,167.154 226.5,162.5 Z"/></g>
<g><path style="opacity:1" fill="#3f7fbf" d="M 209.5,162.5 C 210.091,163.151 210.757,163.818 211.5,164.5C 209.991,168.378 208.991,172.378 208.5,176.5C 207.167,176.5 205.833,176.5 204.5,176.5C 204.754,172.061 205.588,167.728 207,163.5C 207.671,162.748 208.504,162.414 209.5,162.5 Z"/></g>
<g><path style="opacity:1" fill="#08745c" d="M 340.5,162.5 C 339.167,163.5 339.167,164.5 340.5,165.5C 341.434,166.568 341.768,167.901 341.5,169.5C 340.5,168.167 339.5,168.167 338.5,169.5C 335.887,168.565 333.221,168.398 330.5,169C 329.594,170.699 329.261,172.533 329.5,174.5C 327.143,174.337 324.81,174.503 322.5,175C 321.944,175.383 321.611,175.883 321.5,176.5C 319.265,176.205 317.265,176.539 315.5,177.5C 314.5,177.5 313.5,177.5 312.5,177.5C 312.167,177.5 311.833,177.5 311.5,177.5C 309.97,178.067 308.47,178.733 307,179.5C 306.536,178.906 306.369,178.239 306.5,177.5C 306.808,175.076 306.474,172.743 305.5,170.5C 304.264,171.246 302.93,171.579 301.5,171.5C 301.772,169.686 301.939,167.686 302,165.5C 307.001,171.397 308.501,170.731 306.5,163.5C 307.242,162.713 308.075,162.047 309,161.5C 309.333,163.5 309.667,165.5 310,167.5C 311.699,166.594 313.533,166.261 315.5,166.5C 315.5,167.5 315.5,168.5 315.5,169.5C 316.675,169.281 317.675,169.614 318.5,170.5C 319.869,174.458 321.202,174.458 322.5,170.5C 323.88,171.706 325.047,171.373 326,169.5C 326.034,167.82 326.201,166.32 326.5,165C 328.392,164.027 330.392,163.36 332.5,163C 331.643,162.311 330.977,161.478 330.5,160.5C 332.852,159.015 335.186,157.682 337.5,156.5C 338.708,155.766 340.041,155.433 341.5,155.5C 340.687,157.887 340.354,160.22 340.5,162.5 Z"/></g>
<g><path style="opacity:1" fill="#15715b" d="M 278.5,170.5 C 283.328,170.385 284.661,172.552 282.5,177C 276.681,177.526 275.348,175.359 278.5,170.5 Z"/></g>
<g><path style="opacity:1" fill="#2b7565" d="M 185.5,177.5 C 185.5,177.167 185.5,176.833 185.5,176.5C 189.5,176.5 193.5,176.5 197.5,176.5C 197.756,174.208 197.423,172.041 196.5,170C 183.66,169.831 170.993,169.331 158.5,168.5C 173.363,168.911 188.03,168.411 202.5,167C 204.968,168.588 205.134,170.422 203,172.5C 201.828,179.628 202.661,186.462 205.5,193C 203.996,194.788 202.329,195.288 200.5,194.5C 199.03,190.952 198.03,187.285 197.5,183.5C 184.784,184.192 172.117,184.525 159.5,184.5C 159.222,182.654 159.889,181.32 161.5,180.5C 166.833,183.167 172.167,183.167 177.5,180.5C 178.308,180.808 178.975,181.308 179.5,182C 185.491,182.499 191.491,182.666 197.5,182.5C 197.5,180.833 197.5,179.167 197.5,177.5C 193.5,177.5 189.5,177.5 185.5,177.5 Z"/></g>
<g><path style="opacity:1" fill="#137962" d="M 256.5,163.5 C 257.167,163.5 257.5,163.833 257.5,164.5C 261.573,171.317 262.573,178.65 260.5,186.5C 259.662,186.842 259.328,187.508 259.5,188.5C 258.833,188.5 258.5,188.833 258.5,189.5C 257.833,189.5 257.5,189.833 257.5,190.5C 256.833,190.5 256.5,190.833 256.5,191.5C 256.068,192.71 255.401,193.71 254.5,194.5C 253.833,193.167 253.167,193.167 252.5,194.5C 251.508,194.328 250.842,194.662 250.5,195.5C 249.209,195.263 248.209,195.596 247.5,196.5C 246.5,196.5 245.5,196.5 244.5,196.5C 243.5,196.5 242.5,196.5 241.5,196.5C 240.609,195.89 239.609,195.557 238.5,195.5C 237.5,195.5 236.5,195.5 235.5,195.5C 235.027,194.094 234.027,193.427 232.5,193.5C 231.167,191.5 229.5,189.833 227.5,188.5C 227.573,186.973 226.906,185.973 225.5,185.5C 225.5,184.833 225.5,184.167 225.5,183.5C 225.5,183.167 225.5,182.833 225.5,182.5C 224.962,180.883 224.629,179.216 224.5,177.5C 224.5,176.833 224.5,176.167 224.5,175.5C 225.11,174.609 225.443,173.609 225.5,172.5C 225.5,171.833 225.5,171.167 225.5,170.5C 226.338,170.158 226.672,169.492 226.5,168.5C 228.063,167.055 229.396,165.389 230.5,163.5C 231.167,163.5 231.5,163.167 231.5,162.5C 233.027,162.573 234.027,161.906 234.5,160.5C 242.35,158.427 249.683,159.427 256.5,163.5 Z"/></g>
<g><path style="opacity:1" fill="#6c7d81" d="M 215.5,182.5 C 215.5,183.5 215.5,184.5 215.5,185.5C 214.178,185.33 213.011,185.663 212,186.5C 210.69,188.132 210.19,189.799 210.5,191.5C 208.737,192.954 207.403,192.62 206.5,190.5C 207.025,189.808 207.692,189.308 208.5,189C 205.166,188.248 203.499,186.081 203.5,182.5C 203.809,179.508 205.476,178.175 208.5,178.5C 208.022,181.278 209.022,183.278 211.5,184.5C 212.205,181.911 212.205,179.244 211.5,176.5C 212.5,176.5 213.5,176.5 214.5,176.5C 214.205,178.735 214.539,180.735 215.5,182.5 Z"/></g>
<g><path style="opacity:1" fill="#427fab" d="M 277.5,180.5 C 279.288,180.215 280.955,180.548 282.5,181.5C 281.625,183.773 279.958,184.773 277.5,184.5C 277.5,183.167 277.5,181.833 277.5,180.5 Z"/></g>
<g><path style="opacity:1" fill="#0f775e" d="M 324.5,117.5 C 335.904,129.972 343.404,144.638 347,161.5C 347.483,160.552 347.649,159.552 347.5,158.5C 348.167,158.5 348.833,158.5 349.5,158.5C 349.5,158.833 349.5,159.167 349.5,159.5C 347.742,166.335 347.075,173.335 347.5,180.5C 347.25,183.214 347.083,185.881 347,188.5C 349.774,182.129 350.941,175.462 350.5,168.5C 351.75,168.577 352.583,169.244 353,170.5C 353.251,172.433 353.751,174.266 354.5,176C 351.983,178.09 351.983,179.923 354.5,181.5C 352.745,187.605 351.078,193.772 349.5,200C 352.255,213.007 357.088,225.174 364,236.5C 364.813,238.436 365.313,240.436 365.5,242.5C 365.494,244.844 364.327,246.178 362,246.5C 358.979,244.962 355.812,244.462 352.5,245C 349.95,247.296 346.95,248.63 343.5,249C 342.262,249.69 342.262,250.19 343.5,250.5C 344.849,251.644 345.183,251.644 344.5,250.5C 345.962,249.529 347.295,249.862 348.5,251.5C 347.432,252.434 346.099,252.768 344.5,252.5C 343.5,252.5 342.5,252.5 341.5,252.5C 341.5,252.167 341.5,251.833 341.5,251.5C 340.766,250.292 340.433,248.959 340.5,247.5C 340.5,247.167 340.5,246.833 340.5,246.5C 340.5,245.833 340.167,245.5 339.5,245.5C 339.672,244.508 339.338,243.842 338.5,243.5C 337.379,241.911 337.546,240.244 339,238.5C 340.016,239.634 340.683,239.301 341,237.5C 341.333,237.833 341.667,238.167 342,238.5C 345.953,236.565 350.12,234.898 354.5,233.5C 351.74,226.982 348.74,220.649 345.5,214.5C 345.5,213.833 345.167,213.5 344.5,213.5C 343.833,213.5 343.5,213.167 343.5,212.5C 343.5,212.167 343.5,211.833 343.5,211.5C 344.167,211.5 344.5,211.167 344.5,210.5C 344.672,209.508 344.338,208.842 343.5,208.5C 343.5,207.833 343.5,207.167 343.5,206.5C 343.298,200.614 343.298,194.78 343.5,189C 342.364,187.855 341.364,186.688 340.5,185.5C 340.5,185.167 340.5,184.833 340.5,184.5C 341.388,181.946 341.721,179.279 341.5,176.5C 341.5,174.167 341.5,171.833 341.5,169.5C 342.372,171.563 343.538,173.563 345,175.5C 345.847,168.15 345.013,160.983 342.5,154C 342.645,153.228 342.978,152.561 343.5,152C 342.009,149.506 340.509,147.006 339,144.5C 338.667,145.5 338.333,146.5 338,147.5C 337.424,145.623 337.591,143.789 338.5,142C 333.509,132.177 326.843,123.677 318.5,116.5C 317.537,115.637 317.537,114.97 318.5,114.5C 320.534,115.559 322.534,116.559 324.5,117.5 Z"/></g>
<g><path style="opacity:1" fill="#4c7c78" d="M 316.5,185.5 C 322.646,185.048 327.979,186.882 332.5,191C 328.974,189.584 325.308,188.084 321.5,186.5C 314.843,188.001 308.177,189.168 301.5,190C 306.577,188.32 311.577,186.82 316.5,185.5 Z"/></g>
<g><path style="opacity:1" fill="#718f9e" d="M 185.5,176.5 C 185.5,176.833 185.5,177.167 185.5,177.5C 183.326,180.937 180.992,181.103 178.5,178C 170.167,177.333 161.833,177.333 153.5,178C 155.886,178.284 156.552,179.284 155.5,181C 157.276,184.441 159.443,187.608 162,190.5C 173.758,191.322 185.591,191.822 197.5,192C 185.5,192.667 173.5,192.667 161.5,192C 159.539,189.037 157.206,186.371 154.5,184C 147.857,183.619 141.357,183.452 135,183.5C 134.388,181.763 135.054,180.763 137,180.5C 141.867,181.812 146.701,181.646 151.5,180C 150.611,175.615 147.944,173.781 143.5,174.5C 140.475,174.633 137.808,175.633 135.5,177.5C 134.119,177 133.453,176 133.5,174.5C 133.434,172.734 134.268,171.734 136,171.5C 141.888,172.763 147.722,174.263 153.5,176C 161.833,176.667 170.167,176.667 178.5,176C 180.992,172.897 183.326,173.063 185.5,176.5 Z"/></g>
<g><path style="opacity:1" fill="#4985b3" d="M 235.5,153.5 C 236.978,153.238 238.311,153.571 239.5,154.5C 234.486,155.49 230.819,158.156 228.5,162.5C 227.833,162.5 227.167,162.5 226.5,162.5C 222.392,167.154 220.392,172.654 220.5,179C 222.604,179.489 222.938,180.655 221.5,182.5C 222.252,187.21 224.585,190.877 228.5,193.5C 229.167,193.5 229.5,193.833 229.5,194.5C 231.65,197.415 234.65,199.081 238.5,199.5C 240.03,199.36 241.03,198.693 241.5,197.5C 241.833,197.5 242.167,197.5 242.5,197.5C 243.038,199.117 243.371,200.784 243.5,202.5C 241.097,202.552 238.764,202.219 236.5,201.5C 232.199,201.182 228.532,199.515 225.5,196.5C 224.5,194.833 223.167,193.5 221.5,192.5C 220.12,189.089 218.786,185.756 217.5,182.5C 217.048,176.62 217.882,170.953 220,165.5C 222.41,162.603 224.577,159.603 226.5,156.5C 228.514,156.608 230.18,155.942 231.5,154.5C 232.833,154.167 234.167,153.833 235.5,153.5 Z"/></g>
<g><path style="opacity:1" fill="#408079" d="M 330.5,185.5 C 331.167,185.5 331.833,185.5 332.5,185.5C 332.5,186.167 332.833,186.5 333.5,186.5C 335.109,187.898 335.942,189.565 336,191.5C 333.96,189.63 332.127,187.63 330.5,185.5 Z"/></g>
<g><path style="opacity:1" fill="#377eb7" d="M 277.5,192.5 C 276.909,191.849 276.243,191.182 275.5,190.5C 276.309,188.929 276.643,187.262 276.5,185.5C 281.938,185.272 282.938,187.272 279.5,191.5C 279.043,192.298 278.376,192.631 277.5,192.5 Z"/></g>
<g><path style="opacity:1" fill="#447178" d="M 325.5,190.5 C 326.239,190.369 326.906,190.536 327.5,191C 326.563,191.692 325.897,191.525 325.5,190.5 Z"/></g>
<g><path style="opacity:1" fill="#24776a" d="M 217.5,182.5 C 218.786,185.756 220.12,189.089 221.5,192.5C 221.082,193.222 220.416,193.722 219.5,194C 220.784,195.297 220.617,196.464 219,197.5C 216.059,194.987 214.892,191.987 215.5,188.5C 216.396,189.506 217.062,189.506 217.5,188.5C 216.181,186.468 216.181,184.468 217.5,182.5 Z"/></g>
<g><path style="opacity:1" fill="#567063" d="M 296.5,192.5 C 296.897,191.475 297.563,191.308 298.5,192C 297.906,192.464 297.239,192.631 296.5,192.5 Z"/></g>
<g><path style="opacity:1" fill="#1d7768" d="M 246.5,203.5 C 250.701,201.494 255.035,199.661 259.5,198C 261.004,196.509 261.837,194.676 262,192.5C 263.333,191.833 264.667,191.167 266,190.5C 268.538,184.277 270.038,177.944 270.5,171.5C 271.653,170.687 271.653,169.687 270.5,168.5C 269.575,167.438 268.575,167.438 267.5,168.5C 266.27,166.703 265.604,164.703 265.5,162.5C 266.239,162.631 266.906,162.464 267.5,162C 266.357,158.303 267.19,157.803 270,160.5C 272.576,164.475 274.076,168.808 274.5,173.5C 273.5,173.5 272.5,173.5 271.5,173.5C 271.337,175.857 271.503,178.19 272,180.5C 272.996,173.058 273.829,172.892 274.5,180C 274.333,181.833 274.167,183.667 274,185.5C 272.442,186.345 271.442,185.679 271,183.5C 270.833,184.167 270.667,184.833 270.5,185.5C 271.933,187.336 272.433,189.336 272,191.5C 267.863,198.973 261.863,204.306 254,207.5C 253.517,206.552 253.351,205.552 253.5,204.5C 249.162,204.622 248.828,204.955 252.5,205.5C 252.5,206.5 252.5,207.5 252.5,208.5C 248.118,209.294 243.785,209.294 239.5,208.5C 239.167,208.167 238.833,207.833 238.5,207.5C 241.447,206.679 244.447,206.179 247.5,206C 246.748,205.329 246.414,204.496 246.5,203.5 Z"/></g>
<g><path style="opacity:1" fill="#4285bc" d="M 277.5,192.5 C 278.684,193.688 278.684,194.855 277.5,196C 278.044,196.717 278.711,197.217 279.5,197.5C 279.5,198.167 279.5,198.833 279.5,199.5C 278.25,199.423 277.417,198.756 277,197.5C 276.283,198.044 275.783,198.711 275.5,199.5C 274.833,199.5 274.167,199.5 273.5,199.5C 273.5,198.833 273.167,198.5 272.5,198.5C 272.324,194.808 273.991,192.808 277.5,192.5 Z"/></g>
<g><path style="opacity:1" fill="#3d786f" d="M 292.5,193.5 C 296.619,194.368 297.119,196.034 294,198.5C 291.389,197.5 290.889,195.833 292.5,193.5 Z M 292.5,196.5 C 293.077,195.227 293.743,195.227 294.5,196.5C 294.03,197.463 293.363,197.463 292.5,196.5 Z"/></g>
<g><path style="opacity:1" fill="#b9c9c8" d="M 139.5,199.5 C 139.5,199.167 139.5,198.833 139.5,198.5C 147.507,198.666 155.507,198.5 163.5,198C 165.297,195.768 167.63,194.602 170.5,194.5C 175.097,194.799 178.764,195.799 181.5,197.5C 187.284,193.449 192.618,193.949 197.5,199C 195.726,199.97 193.893,200.804 192,201.5C 174.539,200.279 157.039,199.613 139.5,199.5 Z"/></g>
<g><path style="opacity:1" fill="#1c7260" d="M 204.5,195.5 C 205.496,195.414 206.329,195.748 207,196.5C 210.326,199.669 209.993,202.002 206,203.5C 203.8,202.133 202.3,200.133 201.5,197.5C 202.602,196.824 203.602,196.158 204.5,195.5 Z"/></g>
<g><path style="opacity:1" fill="#56706f" d="M 297.5,199.5 C 296.833,198.167 296.833,198.167 297.5,199.5 Z"/></g>
<g><path style="opacity:1" fill="#c46262" d="M 139.5,198.5 C 139.5,198.833 139.5,199.167 139.5,199.5C 134.991,202.852 132.825,201.852 133,196.5C 135.906,194.933 138.072,195.6 139.5,198.5 Z"/></g>
<g><path style="opacity:1" fill="#307f75" d="M 338.5,169.5 C 340.312,173.068 339.312,175.568 335.5,177C 337.09,178.046 338.59,179.213 340,180.5C 340.21,178.942 340.71,177.609 341.5,176.5C 341.721,179.279 341.388,181.946 340.5,184.5C 339.833,184.5 339.5,184.833 339.5,185.5C 339.833,185.5 340.167,185.5 340.5,185.5C 341.364,186.688 342.364,187.855 343.5,189C 343.298,194.78 343.298,200.614 343.5,206.5C 342.167,207.167 342.167,207.833 343.5,208.5C 344.338,208.842 344.672,209.508 344.5,210.5C 343.833,210.5 343.5,210.833 343.5,211.5C 343.5,211.833 343.5,212.167 343.5,212.5C 341.621,212.607 341.288,212.107 342.5,211C 341.751,209.266 341.251,207.433 341,205.5C 340.347,208.139 339.18,210.473 337.5,212.5C 337.167,212.5 336.833,212.5 336.5,212.5C 336.334,208.154 336.501,203.821 337,199.5C 337.333,201.833 337.667,204.167 338,206.5C 338.39,202.486 338.89,198.486 339.5,194.5C 338.933,190.675 336.933,188.009 333.5,186.5C 332.833,186.5 332.5,186.167 332.5,185.5C 331.833,184.167 331.167,184.167 330.5,185.5C 319.017,182.499 307.85,183.499 297,188.5C 296.939,186.314 296.772,184.314 296.5,182.5C 296.833,182.5 297.167,182.5 297.5,182.5C 298.167,182.5 298.5,182.167 298.5,181.5C 299.5,181.5 300.5,181.5 301.5,181.5C 301.833,180.833 302.167,180.167 302.5,179.5C 303.671,178.655 305.005,177.989 306.5,177.5C 306.369,178.239 306.536,178.906 307,179.5C 308.47,178.733 309.97,178.067 311.5,177.5C 311.833,178.833 312.167,178.833 312.5,177.5C 313.5,177.5 314.5,177.5 315.5,177.5C 319.846,177.666 324.179,177.499 328.5,177C 326.19,176.503 323.857,176.337 321.5,176.5C 321.611,175.883 321.944,175.383 322.5,175C 324.81,174.503 327.143,174.337 329.5,174.5C 329.261,172.533 329.594,170.699 330.5,169C 333.221,168.398 335.887,168.565 338.5,169.5 Z M 339.5,187.5 C 341.213,188.635 341.88,190.302 341.5,192.5C 340.463,191.07 339.796,189.403 339.5,187.5 Z M 339.5,185.5 C 339.5,186.167 339.5,186.833 339.5,187.5C 336.813,185.606 336.813,184.939 339.5,185.5 Z M 332.5,175.5 C 331.351,175.209 330.684,174.376 330.5,173C 330.667,172.167 330.833,171.333 331,170.5C 331.352,172.247 331.852,173.914 332.5,175.5 Z"/></g>
<g><path style="opacity:1" fill="#3f7cc2" d="M 218.5,205.5 C 216.097,205.607 214.264,204.607 213,202.5C 211.247,199.995 209.747,197.329 208.5,194.5C 209.705,192.862 211.038,192.529 212.5,193.5C 214.64,196.807 216.974,199.974 219.5,203C 218.748,203.671 218.414,204.504 218.5,205.5 Z"/></g>
<g><path style="opacity:1" fill="#835550" d="M 279.5,199.5 C 281.027,199.427 282.027,200.094 282.5,201.5C 282.672,202.492 282.338,203.158 281.5,203.5C 279.833,203.5 278.167,203.5 276.5,203.5C 276.768,201.901 276.434,200.568 275.5,199.5C 275.783,198.711 276.283,198.044 277,197.5C 277.417,198.756 278.25,199.423 279.5,199.5 Z"/></g>
<g><path style="opacity:1" fill="#1d7568" d="M 225.5,196.5 C 228.532,199.515 232.199,201.182 236.5,201.5C 236.611,202.117 236.944,202.617 237.5,203C 240.146,203.497 242.813,203.664 245.5,203.5C 242.609,205.853 239.276,206.186 235.5,204.5C 234.494,204.938 234.494,205.604 235.5,206.5C 232.07,207.95 229.737,206.95 228.5,203.5C 227.85,203.804 227.183,204.137 226.5,204.5C 220.808,201.968 220.474,199.301 225.5,196.5 Z M 231.5,203.5 C 230.5,203.5 229.5,203.5 228.5,203.5C 228.957,201.443 229.957,201.443 231.5,203.5 Z"/></g>
<g><path style="opacity:1" fill="#387ebe" d="M 272.5,198.5 C 273.167,198.5 273.5,198.833 273.5,199.5C 274.501,200.789 274.334,202.122 273,203.5C 269.872,206.474 266.372,208.807 262.5,210.5C 262.672,209.508 262.338,208.842 261.5,208.5C 264.516,204.485 268.183,201.152 272.5,198.5 Z"/></g>
<g><path style="opacity:1" fill="#3d8279" d="M 325.5,190.5 C 319.738,190.149 314.072,190.649 308.5,192C 313.501,191.653 318.334,191.487 323,191.5C 323.925,192.047 324.758,192.713 325.5,193.5C 320.749,193.131 316.082,193.798 311.5,195.5C 314.002,196.779 316.502,196.779 319,195.5C 322.288,199.119 322.121,202.619 318.5,206C 319.449,206.617 320.282,206.451 321,205.5C 321.71,206.973 322.876,207.64 324.5,207.5C 323.826,202.016 324.992,197.016 328,192.5C 326.719,197.972 326.219,203.638 326.5,209.5C 323.247,208.753 319.914,208.753 316.5,209.5C 314.833,208.167 313.167,208.167 311.5,209.5C 309.528,210.517 308.195,209.85 307.5,207.5C 307.5,206.833 307.167,206.5 306.5,206.5C 306.167,206.5 305.833,206.5 305.5,206.5C 305.5,205.833 305.167,205.5 304.5,205.5C 304.5,204.833 304.167,204.5 303.5,204.5C 302.833,203.167 301.833,202.167 300.5,201.5C 300.539,200.417 300.873,199.417 301.5,198.5C 297.625,197.514 297.625,196.347 301.5,195C 300.833,194.667 300.167,194.333 299.5,194C 305.284,191.461 311.284,189.628 317.5,188.5C 320.386,188.804 323.052,189.471 325.5,190.5 Z M 312.5,198.5 C 313.833,198.5 315.167,198.5 316.5,198.5C 316.778,200.346 316.111,201.68 314.5,202.5C 312.889,201.68 312.222,200.346 312.5,198.5 Z M 311.5,195.5 C 310.152,196.186 308.985,197.186 308,198.5C 306.174,197.159 305.007,197.659 304.5,200C 305.732,203.39 306.566,203.223 307,199.5C 307.516,202.034 308.683,204.2 310.5,206C 304.879,205.383 302.879,202.383 304.5,197C 306.74,196.023 309.073,195.523 311.5,195.5 Z"/></g>
<g><path style="opacity:1" fill="#689388" d="M 154.5,200.5 C 156.103,200.312 157.437,200.812 158.5,202C 165.5,202.333 172.5,202.667 179.5,203C 180.833,204.333 182.167,205.667 183.5,207C 191.5,207.667 199.5,207.667 207.5,207C 207.043,206.586 206.709,206.086 206.5,205.5C 209.954,201.95 212.621,202.783 214.5,208C 213.315,211.909 211.648,212.242 209.5,209C 200.5,208.667 191.5,208.333 182.5,208C 181.167,206.667 179.833,205.333 178.5,204C 171.833,203.333 165.167,203.333 158.5,204C 154.253,206.255 152.92,205.088 154.5,200.5 Z"/></g>
<g><path style="opacity:1" fill="#3e7ec1" d="M 218.5,205.5 C 219.265,205.077 220.098,204.743 221,204.5C 224.189,206.865 227.689,208.532 231.5,209.5C 231.785,211.288 231.452,212.955 230.5,214.5C 227.5,213 224.5,211.5 221.5,210C 219.561,209.092 218.561,207.592 218.5,205.5 Z"/></g>
<g><path style="opacity:1" fill="#4981ac" d="M 261.5,208.5 C 261.328,209.492 261.662,210.158 262.5,210.5C 261.713,212.104 260.38,212.771 258.5,212.5C 258.672,211.508 258.338,210.842 257.5,210.5C 258.183,208.824 259.517,208.157 261.5,208.5 Z"/></g>
<g><path style="opacity:1" fill="#1c7460" d="M 215.5,209.5 C 221.385,210.477 222.552,213.144 219,217.5C 217.22,215.707 215.387,214.04 213.5,212.5C 214.193,211.482 214.859,210.482 215.5,209.5 Z"/></g>
<g><path style="opacity:1" fill="#427db0" d="M 232.5,211.5 C 234.527,211.338 236.527,211.505 238.5,212C 239.535,213.507 239.368,215.007 238,216.5C 236.301,215.594 234.467,215.261 232.5,215.5C 232.5,214.167 232.5,212.833 232.5,211.5 Z"/></g>
<g><path style="opacity:1" fill="#58857a" d="M 158.5,211.5 C 159.833,211.5 161.167,211.5 162.5,211.5C 162.5,212.833 162.5,214.167 162.5,215.5C 156.158,215.01 149.825,214.343 143.5,213.5C 147.995,213.52 152.662,213.354 157.5,213C 158.056,212.617 158.389,212.117 158.5,211.5 Z"/></g>
<g><path style="opacity:1" fill="#3f81b6" d="M 257.5,210.5 C 257.328,211.492 257.662,212.158 258.5,212.5C 256.778,215.91 254.611,216.243 252,213.5C 250.082,217.032 248.582,217.032 247.5,213.5C 248.62,211.404 250.12,211.07 252,212.5C 253.046,209.541 254.879,208.874 257.5,210.5 Z"/></g>
<g><path style="opacity:1" fill="#288874" d="M 297.5,199.5 C 298.5,200.167 299.5,200.833 300.5,201.5C 300.5,203.5 301.5,204.5 303.5,204.5C 304.167,204.5 304.5,204.833 304.5,205.5C 305.167,205.5 305.5,205.833 305.5,206.5C 305.833,206.5 306.167,206.5 306.5,206.5C 307.167,206.5 307.5,206.833 307.5,207.5C 308.195,209.85 309.528,210.517 311.5,209.5C 313.167,209.5 314.833,209.5 316.5,209.5C 319.914,208.753 323.247,208.753 326.5,209.5C 327.499,212.829 328.499,216.162 329.5,219.5C 328.833,219.833 328.167,220.167 327.5,220.5C 327.167,220.5 326.833,220.5 326.5,220.5C 325.645,227.065 324.312,233.399 322.5,239.5C 319.875,238.559 319.875,237.393 322.5,236C 321.299,235.097 320.465,233.931 320,232.5C 319.667,233.167 319.333,233.833 319,234.5C 318.802,232.618 318.302,230.952 317.5,229.5C 317.289,227.576 316.623,227.243 315.5,228.5C 312.287,228.81 309.287,228.477 306.5,227.5C 307.167,227.5 307.5,227.167 307.5,226.5C 311.437,226.207 315.27,226.54 319,227.5C 319.5,225 320,222.5 320.5,220C 320.316,218.624 319.649,217.791 318.5,217.5C 318.167,216.167 317.833,216.167 317.5,217.5C 314.15,217.665 310.817,217.498 307.5,217C 302.998,215.585 298.998,213.419 295.5,210.5C 294.205,207.5 293.038,204.166 292,200.5C 294.728,205.759 298.894,208.925 304.5,210C 302.651,208.907 300.984,207.574 299.5,206C 299.833,205.667 300.167,205.333 300.5,205C 298.84,203.512 297.84,201.679 297.5,199.5 Z"/></g>
<g><path style="opacity:1" fill="#4580b6" d="M 242.5,211.5 C 243.708,212.234 245.041,212.567 246.5,212.5C 246.5,213.833 246.5,215.167 246.5,216.5C 244.5,216.5 242.5,216.5 240.5,216.5C 240.365,214.446 241.032,212.779 242.5,211.5 Z"/></g>
<g><path style="opacity:1" fill="#2e7563" d="M 275.5,199.5 C 276.434,200.568 276.768,201.901 276.5,203.5C 278.167,203.5 279.833,203.5 281.5,203.5C 277.029,210.805 270.863,216.138 263,219.5C 262.198,224.419 262.365,229.252 263.5,234C 261.943,237.978 261.11,242.145 261,246.5C 259.301,247.406 257.467,247.739 255.5,247.5C 255.961,251.212 256.627,254.879 257.5,258.5C 255.052,258.99 253.385,258.157 252.5,256C 254.066,253.088 254.899,249.921 255,246.5C 256.699,245.594 258.533,245.261 260.5,245.5C 260.728,241.61 260.394,237.776 259.5,234C 260.167,230 260.833,226 261.5,222C 261.167,221.5 260.833,221 260.5,220.5C 257.979,221.785 255.313,222.452 252.5,222.5C 252.5,228.833 252.5,235.167 252.5,241.5C 249.5,241.5 246.5,241.5 243.5,241.5C 243.5,241.167 243.5,240.833 243.5,240.5C 246.167,240.5 248.833,240.5 251.5,240.5C 251.829,234.794 251.495,229.128 250.5,223.5C 248.783,222.332 248.116,220.665 248.5,218.5C 258.935,216.866 267.768,212.199 275,204.5C 275.494,202.866 275.66,201.199 275.5,199.5 Z"/></g>
<g><path style="opacity:1" fill="#256e5b" d="M 176.5,215.5 C 179.231,216.027 181.898,216.86 184.5,218C 182.22,218.233 180.22,219.066 178.5,220.5C 175.734,219.465 175.068,217.799 176.5,215.5 Z"/></g>
<g><path style="opacity:1" fill="#8e9d9c" d="M 187.5,218.5 C 196.657,217.342 205.991,217.176 215.5,218C 206.173,218.5 196.839,218.666 187.5,218.5 Z"/></g>
<g><path style="opacity:1" fill="#1d715e" d="M 231.5,217.5 C 233.806,217.993 236.139,218.326 238.5,218.5C 238.714,220.144 238.38,221.644 237.5,223C 235.203,223.018 232.869,222.851 230.5,222.5C 230.366,220.708 230.699,219.042 231.5,217.5 Z"/></g>
<g><path style="opacity:1" fill="#1b7662" d="M 239.5,218.5 C 242.167,218.5 244.833,218.5 247.5,218.5C 247.5,220.167 247.5,221.833 247.5,223.5C 244.833,223.5 242.167,223.5 239.5,223.5C 239.5,221.833 239.5,220.167 239.5,218.5 Z"/></g>
<g><path style="opacity:1" fill="#6c8f87" d="M 163.5,224.5 C 153.393,224.109 143.393,224.776 133.5,226.5C 133.007,221.803 134.674,220.637 138.5,223C 147.01,223.171 155.343,223.671 163.5,224.5 Z"/></g>
<g><path style="opacity:1" fill="#1f6f59" d="M 295.5,210.5 C 298.998,213.419 302.998,215.585 307.5,217C 310.817,217.498 314.15,217.665 317.5,217.5C 317.833,217.5 318.167,217.5 318.5,217.5C 319.649,217.791 320.316,218.624 320.5,220C 320,222.5 319.5,225 319,227.5C 315.27,226.54 311.437,226.207 307.5,226.5C 306.833,226.5 306.5,226.833 306.5,227.5C 309.287,228.477 312.287,228.81 315.5,228.5C 315.5,229.167 315.5,229.833 315.5,230.5C 315.228,235.28 313.895,239.614 311.5,243.5C 306.136,241.736 301.302,239.069 297,235.5C 296.487,236.527 295.987,237.527 295.5,238.5C 294.662,238.842 294.328,239.508 294.5,240.5C 293.833,240.5 293.5,240.833 293.5,241.5C 290.873,243.977 287.873,245.644 284.5,246.5C 273.352,246.517 267.018,241.017 265.5,230C 266.865,220.299 272.365,215.132 282,214.5C 289.421,214.089 295.921,216.256 301.5,221C 306.608,222.614 311.775,223.78 317,224.5C 317.49,223.207 317.657,221.873 317.5,220.5C 308.029,221.425 300.696,218.092 295.5,210.5 Z M 296.5,224.5 C 297.251,223.427 298.251,223.26 299.5,224C 298.751,225.734 298.251,227.567 298,229.5C 297.802,227.618 297.302,225.952 296.5,224.5 Z M 291.5,222.5 C 293.894,224.332 294.894,226.832 294.5,230C 294.664,232.544 293.997,234.71 292.5,236.5C 294.048,231.679 293.715,227.012 291.5,222.5 Z M 272.5,222.5 C 268.264,236.932 273.597,242.932 288.5,240.5C 282.036,244.766 276.202,243.766 271,237.5C 267.607,232.081 268.107,227.081 272.5,222.5 Z M 289.5,220.5 C 290.833,220.5 291.5,221.167 291.5,222.5C 290.5,222.167 289.833,221.5 289.5,220.5 Z M 274.5,220.5 C 274.167,221.5 273.5,222.167 272.5,222.5C 272.5,221.167 273.167,220.5 274.5,220.5 Z M 289.5,220.5 C 284.469,217.935 279.469,217.935 274.5,220.5C 276.332,218.106 278.832,217.106 282,217.5C 285.168,217.106 287.668,218.106 289.5,220.5 Z M 281.5,228.5 C 283.332,229.14 283.665,230.14 282.5,231.5C 280.481,230.867 280.147,229.867 281.5,228.5 Z M 278.5,232.5 C 279.5,232.833 280.167,233.5 280.5,234.5C 279.167,234.5 278.5,233.833 278.5,232.5 Z M 289.5,235.5 C 289.5,237.5 288.5,238.5 286.5,238.5C 287.167,237.167 288.167,236.167 289.5,235.5 Z M 292.5,236.5 C 292.167,238.833 290.833,240.167 288.5,240.5C 289.5,238.833 290.833,237.5 292.5,236.5 Z"/></g>
<g><path style="opacity:1" fill="#247f6c" d="M 336.5,212.5 C 336.833,216.5 337.167,216.5 337.5,212.5C 339.18,210.473 340.347,208.139 341,205.5C 341.251,207.433 341.751,209.266 342.5,211C 341.288,212.107 341.621,212.607 343.5,212.5C 343.5,213.167 343.833,213.5 344.5,213.5C 345.167,213.5 345.5,213.833 345.5,214.5C 348.74,220.649 351.74,226.982 354.5,233.5C 350.12,234.898 345.953,236.565 342,238.5C 341.667,238.167 341.333,237.833 341,237.5C 340.683,239.301 340.016,239.634 339,238.5C 337.546,240.244 337.379,241.911 338.5,243.5C 338.328,244.492 338.662,245.158 339.5,245.5C 340.167,245.5 340.5,245.833 340.5,246.5C 339.167,246.833 339.167,247.167 340.5,247.5C 340.433,248.959 340.766,250.292 341.5,251.5C 340.167,251.833 340.167,252.167 341.5,252.5C 342.5,252.5 343.5,252.5 344.5,252.5C 341.974,253.657 339.307,253.657 336.5,252.5C 336.5,251.833 336.167,251.5 335.5,251.5C 335.5,250.833 335.167,250.5 334.5,250.5C 334.5,249.833 334.167,249.5 333.5,249.5C 332.989,246.972 332.322,244.472 331.5,242C 331.585,240.893 331.919,239.893 332.5,239C 332.167,238.833 331.833,238.667 331.5,238.5C 330.692,240.423 330.192,242.423 330,244.5C 329.503,242.19 329.337,239.857 329.5,237.5C 327.077,234.849 327.41,232.349 330.5,230C 327.649,226.541 328.316,223.875 332.5,222C 330.804,220.795 329.137,220.295 327.5,220.5C 328.167,220.167 328.833,219.833 329.5,219.5C 333.898,218.893 334.231,217.893 330.5,216.5C 329.573,213.287 328.573,210.12 327.5,207C 327.833,206.833 328.167,206.667 328.5,206.5C 329.333,208.5 330.167,210.5 331,212.5C 331.04,209.876 330.873,207.209 330.5,204.5C 330.478,202.035 330.978,199.702 332,197.5C 333.016,198.634 333.683,198.301 334,196.5C 334.72,198.112 334.554,199.612 333.5,201C 334.056,205.039 335.056,208.872 336.5,212.5 Z M 335.5,225.5 C 338.499,228.668 337.832,230.168 333.5,230C 335.107,228.951 335.773,227.451 335.5,225.5 Z"/></g>
<g><path style="opacity:1" fill="#468579" d="M 289.5,220.5 C 289.833,221.5 290.5,222.167 291.5,222.5C 293.715,227.012 294.048,231.679 292.5,236.5C 290.833,237.5 289.5,238.833 288.5,240.5C 273.597,242.932 268.264,236.932 272.5,222.5C 273.5,222.167 274.167,221.5 274.5,220.5C 279.469,217.935 284.469,217.935 289.5,220.5 Z M 281.5,228.5 C 280.147,229.867 280.481,230.867 282.5,231.5C 283.665,230.14 283.332,229.14 281.5,228.5 Z M 278.5,232.5 C 279.5,232.833 280.167,233.5 280.5,234.5C 279.167,234.5 278.5,233.833 278.5,232.5 Z M 289.5,235.5 C 289.5,237.5 288.5,238.5 286.5,238.5C 287.167,237.167 288.167,236.167 289.5,235.5 Z"/></g>
<g><path style="opacity:1" fill="#6b8f8a" d="M 163.5,224.5 C 165.845,226.331 168.512,227.498 171.5,228C 174.5,231.667 177.5,235.333 180.5,239C 193.513,239.833 206.513,239.666 219.5,238.5C 220.766,237.276 221.933,235.943 223,234.5C 224.065,230.47 225.232,226.47 226.5,222.5C 225.07,220.614 223.403,218.947 221.5,217.5C 223.041,214.127 225.374,213.627 228.5,216C 229.022,216.561 229.355,217.228 229.5,218C 226.366,225.358 224.533,232.858 224,240.5C 223.275,241.059 222.442,241.392 221.5,241.5C 209.527,240.374 197.527,240.207 185.5,241C 183.983,242.685 182.316,244.185 180.5,245.5C 168.88,244.355 157.213,244.188 145.5,245C 143.241,248.376 141.241,248.21 139.5,244.5C 140.879,241.304 142.879,240.804 145.5,243C 157.5,243.667 169.5,243.667 181.5,243C 183.912,240.965 183.245,239.965 179.5,240C 176.4,234.713 172.067,231.046 166.5,229C 164.859,227.871 163.859,226.371 163.5,224.5 Z M 141.5,244.5 C 142.077,243.227 142.743,243.227 143.5,244.5C 143.03,245.463 142.363,245.463 141.5,244.5 Z"/></g>
<g><path style="opacity:1" fill="#ae8584" d="M 184.5,226.5 C 194.296,228.558 204.296,229.058 214.5,228C 217.821,226.128 219.155,227.295 218.5,231.5C 206.919,228.84 195.252,228.84 183.5,231.5C 183.366,229.708 183.699,228.042 184.5,226.5 Z"/></g>
<g><path style="opacity:1" fill="#c86867" d="M 243.5,240.5 C 243.5,240.833 243.5,241.167 243.5,241.5C 242.85,243.447 241.683,245.113 240,246.5C 239.503,248.81 239.337,251.143 239.5,253.5C 238.833,253.5 238.167,253.5 237.5,253.5C 238.537,251.262 238.703,248.929 238,246.5C 234.318,243.209 234.818,240.876 239.5,239.5C 240.849,239.846 242.183,240.179 243.5,240.5 Z"/></g>
<g><path style="opacity:1" fill="#7997b3" d="M 192.5,244.5 C 204.081,247.16 215.748,247.16 227.5,244.5C 227.993,249.197 226.326,250.363 222.5,248C 213.833,247.333 205.167,247.333 196.5,248C 193.179,249.872 191.845,248.705 192.5,244.5 Z"/></g>
<g><path style="opacity:1" fill="#15755d" d="M 295.5,238.5 C 301.151,240.659 306.484,243.326 311.5,246.5C 311.588,251.636 311.255,256.47 310.5,261C 311.636,262.53 312.636,263.863 313.5,265C 312.975,265.692 312.308,266.192 311.5,266.5C 309.603,261.989 307.436,261.656 305,265.5C 304.009,263.553 303.675,261.553 304,259.5C 305.608,260.433 306.441,259.767 306.5,257.5C 306.333,256.833 306.167,256.167 306,255.5C 305.577,256.956 304.744,257.456 303.5,257C 304.833,256.333 304.833,255.667 303.5,255C 305.061,254.682 306.228,253.849 307,252.5C 308.003,254.935 308.503,254.602 308.5,251.5C 307.905,246.368 305.571,245.368 301.5,248.5C 301.624,249.107 301.957,249.44 302.5,249.5C 302.833,249.5 303.167,249.5 303.5,249.5C 303.5,250.5 303.5,251.5 303.5,252.5C 302.5,252.5 301.5,252.5 300.5,252.5C 300.167,252.5 299.833,252.5 299.5,252.5C 299.167,252.5 298.833,252.5 298.5,252.5C 291.435,248.282 290.935,248.949 297,254.5C 300.267,260.469 302.434,266.803 303.5,273.5C 302.684,271.856 301.35,270.69 299.5,270C 300.576,268.274 300.743,266.441 300,264.5C 298.978,265.354 298.145,266.354 297.5,267.5C 298.393,270.084 298.726,272.751 298.5,275.5C 297.71,274.391 297.21,273.058 297,271.5C 296.424,274.772 296.924,277.772 298.5,280.5C 298.263,281.791 298.596,282.791 299.5,283.5C 299.5,284.167 299.5,284.833 299.5,285.5C 296.569,283.203 293.236,281.703 289.5,281C 288.809,279.933 288.309,278.766 288,277.5C 282.452,279.784 280.619,278.117 282.5,272.5C 284.644,271.047 286.477,271.38 288,273.5C 288.772,268.928 286.939,266.261 282.5,265.5C 282.913,260.762 282.247,256.262 280.5,252C 280.901,249.44 282.234,247.607 284.5,246.5C 286.441,246.869 288.275,247.536 290,248.5C 290.989,246.03 292.155,243.697 293.5,241.5C 294.167,241.5 294.5,241.167 294.5,240.5C 294.328,239.508 294.662,238.842 295.5,238.5 Z M 287.5,253.5 C 291.553,255.911 293.887,259.578 294.5,264.5C 292.43,260.7 290.097,257.034 287.5,253.5 Z"/></g>
<g><path style="opacity:1" fill="#85989e" d="M 237.5,253.5 C 238.167,253.5 238.833,253.5 239.5,253.5C 222.83,254.124 206.163,254.458 189.5,254.5C 188.833,254.5 188.5,254.167 188.5,253.5C 204.664,252.793 220.997,252.793 237.5,253.5 Z"/></g>
<g><path style="opacity:1" fill="#d99391" d="M 188.5,253.5 C 188.5,254.167 188.833,254.5 189.5,254.5C 188.859,255.482 188.193,256.482 187.5,257.5C 180.524,258.331 173.524,258.831 166.5,259C 163.505,262.657 161.172,262.323 159.5,258C 161.488,253.687 163.988,253.52 167,257.5C 171.434,256.411 175.934,256.411 180.5,257.5C 181.833,257.333 183.167,257.167 184.5,257C 185.949,255.898 187.282,254.731 188.5,253.5 Z"/></g>
<g><path style="opacity:1" fill="#217564" d="M 315.5,228.5 C 316.167,228.833 316.833,229.167 317.5,229.5C 318.302,230.952 318.802,232.618 319,234.5C 319.333,233.833 319.667,233.167 320,232.5C 320.465,233.931 321.299,235.097 322.5,236C 319.875,237.393 319.875,238.559 322.5,239.5C 322.5,240.167 322.5,240.833 322.5,241.5C 321.739,248.529 322.739,255.196 325.5,261.5C 324.448,261.351 323.448,261.517 322.5,262C 324.607,263.264 325.607,265.097 325.5,267.5C 319.405,262.762 316.238,256.428 316,248.5C 314.717,258.004 318.051,265.337 326,270.5C 326.464,271.094 326.631,271.761 326.5,272.5C 326.366,274.292 326.699,275.958 327.5,277.5C 323.408,277.51 320.074,279.01 317.5,282C 315.402,282.678 313.402,282.511 311.5,281.5C 311.283,278.579 311.949,275.913 313.5,273.5C 313.833,273.5 314.167,273.5 314.5,273.5C 314.5,274.167 314.833,274.5 315.5,274.5C 315.5,275.167 315.833,275.5 316.5,275.5C 316.833,276.833 317.167,276.833 317.5,275.5C 318.167,275.167 318.833,274.833 319.5,274.5C 319.56,275.043 319.893,275.376 320.5,275.5C 322.167,274.667 323.833,273.833 325.5,273C 321.639,270.304 318.306,267.137 315.5,263.5C 315.672,262.508 315.338,261.842 314.5,261.5C 312.983,251.869 313.65,242.369 316.5,233C 316.472,231.93 316.139,231.097 315.5,230.5C 315.5,229.833 315.5,229.167 315.5,228.5 Z M 313.5,277.5 C 316.388,278.54 316.721,279.873 314.5,281.5C 312.358,280.563 312.024,279.23 313.5,277.5 Z"/></g>
<g><path style="opacity:1" fill="#167660" d="M 326.5,220.5 C 326.5,226.167 326.5,231.833 326.5,237.5C 327.5,237.5 328.5,237.5 329.5,237.5C 329.337,239.857 329.503,242.19 330,244.5C 330.192,242.423 330.692,240.423 331.5,238.5C 331.833,238.667 332.167,238.833 332.5,239C 331.919,239.893 331.585,240.893 331.5,242C 332.322,244.472 332.989,246.972 333.5,249.5C 334.167,249.5 334.5,249.833 334.5,250.5C 335.167,250.5 335.5,250.833 335.5,251.5C 336.167,251.5 336.5,251.833 336.5,252.5C 337.749,254.136 339.416,255.303 341.5,256C 340.76,257.785 340.093,259.618 339.5,261.5C 339.957,262.298 340.624,262.631 341.5,262.5C 342.609,262.557 343.609,262.89 344.5,263.5C 344.5,265.167 344.5,266.833 344.5,268.5C 341.234,268.567 339.734,266.901 340,263.5C 339.634,265.452 338.801,267.118 337.5,268.5C 336.833,268.5 336.167,268.5 335.5,268.5C 334.833,268.5 334.5,268.833 334.5,269.5C 333.833,269.5 333.5,269.167 333.5,268.5C 333.5,267.833 333.5,267.167 333.5,266.5C 334.216,266.217 335.049,265.884 336,265.5C 336.49,264.207 336.657,262.873 336.5,261.5C 332.09,260.6 328.59,258.266 326,254.5C 324.417,250.152 323.251,245.818 322.5,241.5C 322.5,240.833 322.5,240.167 322.5,239.5C 324.312,233.399 325.645,227.065 326.5,220.5 Z"/></g>
<g><path style="opacity:1" fill="#30836f" d="M 365.5,242.5 C 366.837,245.317 366.17,247.817 363.5,250C 359.013,251.603 354.846,253.77 351,256.5C 349.275,262.013 348.275,267.68 348,273.5C 345.579,275.113 343.079,276.447 340.5,277.5C 339.376,276.191 337.876,275.525 336,275.5C 333.083,275.982 330.249,276.649 327.5,277.5C 326.699,275.958 326.366,274.292 326.5,272.5C 327.473,272.013 328.473,271.513 329.5,271C 327.907,270.051 326.574,268.885 325.5,267.5C 325.607,265.097 324.607,263.264 322.5,262C 323.448,261.517 324.448,261.351 325.5,261.5C 327.83,263.667 330.497,265.334 333.5,266.5C 333.5,267.167 333.5,267.833 333.5,268.5C 332.624,268.369 331.957,268.702 331.5,269.5C 332.614,270.776 333.614,270.776 334.5,269.5C 334.5,268.833 334.833,268.5 335.5,268.5C 336.167,269.833 336.833,269.833 337.5,268.5C 338.801,267.118 339.634,265.452 340,263.5C 339.734,266.901 341.234,268.567 344.5,268.5C 344.5,266.833 344.5,265.167 344.5,263.5C 343.609,262.89 342.609,262.557 341.5,262.5C 342.594,260.388 343.594,258.221 344.5,256C 346.848,255.654 348.681,254.487 350,252.5C 353.308,252.966 356.475,252.133 359.5,250C 355.742,249.687 352.076,250.187 348.5,251.5C 347.295,249.862 345.962,249.529 344.5,250.5C 344.167,250.5 343.833,250.5 343.5,250.5C 342.262,250.19 342.262,249.69 343.5,249C 346.95,248.63 349.95,247.296 352.5,245C 355.812,244.462 358.979,244.962 362,246.5C 364.327,246.178 365.494,244.844 365.5,242.5 Z M 333.5,268.5 C 333.5,269.167 333.833,269.5 334.5,269.5C 333.614,270.776 332.614,270.776 331.5,269.5C 331.957,268.702 332.624,268.369 333.5,268.5 Z"/></g>
<g><path style="opacity:1" fill="#599198" d="M 259.5,273.5 C 258.406,271.388 257.406,269.221 256.5,267C 235.081,265.95 213.748,266.45 192.5,268.5C 192.5,266.833 192.5,265.167 192.5,263.5C 194.75,263.181 196.75,263.681 198.5,265C 217.833,265.667 237.167,265.667 256.5,265C 258.972,255.965 264.639,252.965 273.5,256C 278.153,259.788 279.653,264.622 278,270.5C 272.894,277.329 266.727,278.329 259.5,273.5 Z M 194.5,264.5 C 195.573,265.251 195.74,266.251 195,267.5C 193.272,266.648 193.105,265.648 194.5,264.5 Z M 262.5,271.5 C 263.404,270.791 263.737,269.791 263.5,268.5C 262.24,268.201 261.073,268.201 260,268.5C 259.204,262.298 261.87,258.632 268,257.5C 274.296,258.399 276.963,262.066 276,268.5C 272.483,274.968 267.983,275.968 262.5,271.5 Z M 266.5,264.5 C 267.5,264.5 268.5,264.5 269.5,264.5C 268.754,268.31 267.754,268.31 266.5,264.5 Z"/></g>
<g><path style="opacity:1" fill="#94837a" d="M 263.5,268.5 C 263.649,267.448 263.483,266.448 263,265.5C 262.346,266.696 261.846,266.696 261.5,265.5C 266.31,258.537 270.31,258.87 273.5,266.5C 271.913,268.085 271.08,269.752 271,271.5C 268.285,270.931 265.785,269.931 263.5,268.5 Z M 266.5,264.5 C 267.754,268.31 268.754,268.31 269.5,264.5C 268.5,264.5 267.5,264.5 266.5,264.5 Z"/></g>
<g><path style="opacity:1" fill="#0a7159" d="M 311.5,246.5 C 312.008,251.6 313.008,256.6 314.5,261.5C 314.328,262.492 314.662,263.158 315.5,263.5C 316.335,267.324 318.335,270.49 321.5,273C 320.956,273.717 320.289,274.217 319.5,274.5C 318.833,274.833 318.167,275.167 317.5,275.5C 317.167,275.5 316.833,275.5 316.5,275.5C 315.833,275.5 315.5,275.167 315.5,274.5C 314.833,274.5 314.5,274.167 314.5,273.5C 314.167,272.167 313.833,272.167 313.5,273.5C 311.949,275.913 311.283,278.579 311.5,281.5C 310.969,283.624 309.635,285.124 307.5,286C 308.448,286.483 309.448,286.649 310.5,286.5C 309.922,288.443 308.922,288.777 307.5,287.5C 306.571,288.689 306.238,290.022 306.5,291.5C 305.9,290.1 304.9,289.1 303.5,288.5C 303.167,288.5 302.833,288.5 302.5,288.5C 302.5,287.833 302.167,287.5 301.5,287.5C 301.5,287.167 301.5,286.833 301.5,286.5C 301.5,285.833 301.167,285.5 300.5,285.5C 300.672,284.508 300.338,283.842 299.5,283.5C 299.737,282.209 299.404,281.209 298.5,280.5C 298.5,278.833 298.5,277.167 298.5,275.5C 298.726,272.751 298.393,270.084 297.5,267.5C 298.145,266.354 298.978,265.354 300,264.5C 300.743,266.441 300.576,268.274 299.5,270C 301.35,270.69 302.684,271.856 303.5,273.5C 304.067,275.03 304.733,276.53 305.5,278C 306.483,278.591 307.15,278.257 307.5,277C 304.551,268.623 301.551,260.457 298.5,252.5C 298.833,252.5 299.167,252.5 299.5,252.5C 299.833,255.167 300.167,255.167 300.5,252.5C 301.5,252.5 302.5,252.5 303.5,252.5C 303.5,251.5 303.5,250.5 303.5,249.5C 303.167,248.167 302.833,248.167 302.5,249.5C 301.957,249.44 301.624,249.107 301.5,248.5C 305.571,245.368 307.905,246.368 308.5,251.5C 308.503,254.602 308.003,254.935 307,252.5C 306.228,253.849 305.061,254.682 303.5,255C 304.833,255.667 304.833,256.333 303.5,257C 304.744,257.456 305.577,256.956 306,255.5C 306.167,256.167 306.333,256.833 306.5,257.5C 306.441,259.767 305.608,260.433 304,259.5C 303.675,261.553 304.009,263.553 305,265.5C 307.436,261.656 309.603,261.989 311.5,266.5C 312.308,266.192 312.975,265.692 313.5,265C 312.636,263.863 311.636,262.53 310.5,261C 311.255,256.47 311.588,251.636 311.5,246.5 Z"/></g>
<g><path style="opacity:1" fill="#227f6a" d="M 340.5,277.5 C 345.107,279.772 346.607,283.438 345,288.5C 342.791,290.373 340.958,292.54 339.5,295C 338.552,295.483 337.552,295.649 336.5,295.5C 334.948,293.041 332.615,291.541 329.5,291C 326.633,290.199 323.966,290.366 321.5,291.5C 319.557,290.922 319.223,289.922 320.5,288.5C 319.311,287.571 317.978,287.238 316.5,287.5C 317.589,285.883 319.256,285.05 321.5,285C 320.62,283.644 320.286,282.144 320.5,280.5C 327.426,279.971 334.093,278.971 340.5,277.5 Z"/></g>
<g><path style="opacity:1" fill="#3e7c6f" d="M 259.5,273.5 C 258.33,279.189 258.33,284.856 259.5,290.5C 261.5,290.833 263.5,291.167 265.5,291.5C 268.343,291.085 271.01,290.585 273.5,290C 273.044,296.468 273.544,302.968 275,309.5C 280.042,312.337 285.208,314.671 290.5,316.5C 284.539,315.79 279.039,313.79 274,310.5C 272.954,304.664 272.121,298.831 271.5,293C 266.574,291.964 261.907,292.464 257.5,294.5C 256.522,294.023 255.689,293.357 255,292.5C 255.976,289.924 256.476,287.091 256.5,284C 256.726,281.329 256.059,278.996 254.5,277C 236.833,276.333 219.167,276.333 201.5,277C 199.44,279.091 197.773,278.758 196.5,276C 197.773,273.242 199.44,272.909 201.5,275C 219.167,275.667 236.833,275.667 254.5,275C 255.905,273.731 257.571,273.231 259.5,273.5 Z"/></g>
<g><path style="opacity:1" fill="#227964" d="M 299.5,285.5 C 299.833,285.5 300.167,285.5 300.5,285.5C 301.167,285.5 301.5,285.833 301.5,286.5C 300.167,286.833 300.167,287.167 301.5,287.5C 302.167,287.5 302.5,287.833 302.5,288.5C 302.833,288.5 303.167,288.5 303.5,288.5C 303.047,289.458 302.381,290.292 301.5,291C 302.967,292.098 303.801,293.598 304,295.5C 304.377,294.058 305.21,293.058 306.5,292.5C 306.5,292.167 306.5,291.833 306.5,291.5C 306.238,290.022 306.571,288.689 307.5,287.5C 308.922,288.777 309.922,288.443 310.5,286.5C 312.621,286.325 314.621,286.659 316.5,287.5C 317.978,287.238 319.311,287.571 320.5,288.5C 319.223,289.922 319.557,290.922 321.5,291.5C 324.641,292.321 327.975,292.821 331.5,293C 332.394,294.104 333.394,295.27 334.5,296.5C 334.842,295.662 335.508,295.328 336.5,295.5C 336.877,297.258 337.544,298.925 338.5,300.5C 336.29,302.209 336.123,304.209 338,306.5C 339.517,316.47 335.35,322.47 325.5,324.5C 327.222,321.741 330.055,319.408 334,317.5C 338.206,309.792 336.539,303.792 329,299.5C 323.031,297.483 318.364,299.15 315,304.5C 311.744,311.759 313.577,317.259 320.5,321C 319.944,321.383 319.611,321.883 319.5,322.5C 318.833,322.5 318.167,322.5 317.5,322.5C 317.842,323.338 318.508,323.672 319.5,323.5C 320.873,323.343 322.207,323.51 323.5,324C 322.944,324.383 322.611,324.883 322.5,325.5C 311.585,323.107 300.918,320.107 290.5,316.5C 293.167,316.833 295.833,317.167 298.5,317.5C 294.441,315.972 290.441,314.139 286.5,312C 287.5,311.667 288.5,311.333 289.5,311C 287.16,307.769 286.827,304.269 288.5,300.5C 290.767,299.577 293.1,298.744 295.5,298C 294.91,296.491 294.244,294.991 293.5,293.5C 286.892,294.547 284.725,291.881 287,285.5C 292.677,282.144 296.01,283.811 297,290.5C 298.067,289.809 299.234,289.309 300.5,289C 299.663,287.989 299.33,286.822 299.5,285.5 Z M 313.5,293.5 C 314.087,294.767 314.087,295.767 313.5,296.5C 308.581,294.453 308.581,293.453 313.5,293.5 Z M 314.5,292.5 C 314.511,289.999 315.178,289.832 316.5,292C 315.906,292.464 315.239,292.631 314.5,292.5 Z M 303.5,288.5 C 304.9,289.1 305.9,290.1 306.5,291.5C 306.5,291.833 306.5,292.167 306.5,292.5C 305.21,293.058 304.377,294.058 304,295.5C 303.801,293.598 302.967,292.098 301.5,291C 302.381,290.292 303.047,289.458 303.5,288.5 Z M 317.5,295.5 C 319.176,294.29 320.51,294.79 321.5,297C 319.481,297.45 317.648,298.283 316,299.5C 315.911,297.887 316.745,296.72 318.5,296C 318.272,295.601 317.938,295.435 317.5,295.5 Z M 334.5,296.5 C 335.713,297.497 335.546,298.497 334,299.5C 333.53,298.423 333.697,297.423 334.5,296.5 Z M 300.5,299.5 C 302.803,303.775 306.47,306.108 311.5,306.5C 311.657,307.873 311.49,309.207 311,310.5C 307.611,307.258 304.111,306.924 300.5,309.5C 300.893,306.07 300.227,302.904 298.5,300C 299.094,299.536 299.761,299.369 300.5,299.5 Z M 300.5,309.5 C 301.475,311.513 303.142,312.846 305.5,313.5C 306.386,314.325 306.719,315.325 306.5,316.5C 301.329,316.124 296.329,314.958 291.5,313C 295.08,313.087 298.08,311.92 300.5,309.5 Z M 317.5,322.5 C 315.61,322.703 314.11,322.037 313,320.5C 311.115,318.086 310.448,315.419 311,312.5C 312.212,316.528 314.379,319.862 317.5,322.5 Z M 298.5,317.5 C 303.162,317.581 307.495,318.748 311.5,321C 306.933,320.609 302.6,319.442 298.5,317.5 Z"/></g>
<g><path style="opacity:1" fill="#47907d" d="M 288.5,300.5 C 285.573,302.132 283.573,301.298 282.5,298C 286.311,294.289 288.311,295.123 288.5,300.5 Z"/></g>
<g><path style="opacity:1" fill="#137e65" d="M 325.5,324.5 C 324.609,325.11 323.609,325.443 322.5,325.5C 322.611,324.883 322.944,324.383 323.5,324C 322.207,323.51 320.873,323.343 319.5,323.5C 319.5,323.167 319.5,322.833 319.5,322.5C 319.611,321.883 319.944,321.383 320.5,321C 313.577,317.259 311.744,311.759 315,304.5C 318.364,299.15 323.031,297.483 329,299.5C 336.539,303.792 338.206,309.792 334,317.5C 330.055,319.408 327.222,321.741 325.5,324.5 Z"/></g>
<g><path style="opacity:1" fill="#057257" d="M 185.5,356.5 C 190.483,357.922 194.317,360.922 197,365.5C 198.258,375.911 193.592,380.911 183,380.5C 179.126,380.813 175.626,379.813 172.5,377.5C 169.101,379.312 165.434,379.979 161.5,379.5C 161.5,374.833 161.5,370.167 161.5,365.5C 165.167,365.5 168.833,365.5 172.5,365.5C 172.137,367.911 173.137,369.411 175.5,370C 178.053,370.851 180.386,370.518 182.5,369C 177.284,366.48 171.95,364.147 166.5,362C 161.593,356.264 161.26,350.264 165.5,344C 172.511,339.258 179.344,339.425 186,344.5C 186.483,343.552 186.649,342.552 186.5,341.5C 189.833,341.5 193.167,341.5 196.5,341.5C 196.5,346.5 196.5,351.5 196.5,356.5C 192.833,356.5 189.167,356.5 185.5,356.5 Z M 185.5,356.5 C 182.689,356.174 180.022,355.341 177.5,354C 176.399,351.708 177.232,350.208 180,349.5C 183.91,350.24 185.744,352.573 185.5,356.5 Z"/></g>
<g><path style="opacity:1" fill="#017456" d="M 228.5,342.5 C 231.5,352.5 234.5,362.5 237.5,372.5C 238.63,374.315 239.296,376.315 239.5,378.5C 232.646,378.176 225.979,378.509 219.5,379.5C 218.167,377.167 218.167,374.833 219.5,372.5C 219.275,374.716 220.108,376.383 222,377.5C 223.098,376.033 224.598,375.199 226.5,375C 223.833,373.667 223.833,372.333 226.5,371C 224.122,370.026 224.456,369.359 227.5,369C 224.313,368.999 221.48,368.166 219,366.5C 217.207,367.381 216.54,366.714 217,364.5C 218.652,363.783 220.152,363.45 221.5,363.5C 219.369,362.831 217.369,362.165 215.5,361.5C 217.167,361.5 218.833,361.5 220.5,361.5C 223.185,359.789 223.518,357.955 221.5,356C 223.513,354.209 223.513,352.875 221.5,352C 221.957,351.586 222.291,351.086 222.5,350.5C 221.5,350.167 220.5,349.833 219.5,349.5C 217.483,350.389 215.483,350.889 213.5,351C 211.559,349.184 210.892,347.184 211.5,345C 208.625,344.105 208.292,343.272 210.5,342.5C 211.647,342.818 212.481,343.484 213,344.5C 213.333,344.167 213.667,343.833 214,343.5C 216.38,346.929 218.88,347.095 221.5,344C 221.167,343.667 220.833,343.333 220.5,343C 223.146,342.503 225.813,342.336 228.5,342.5 Z"/></g>
<g><path style="opacity:1" fill="#027457" d="M 276.5,359.5 C 276.379,362.237 274.879,364.571 272,366.5C 271.784,368.384 271.117,370.051 270,371.5C 267.904,370.285 268.071,369.451 270.5,369C 269.74,365.333 268.24,364.833 266,367.5C 264.915,365.343 263.749,365.176 262.5,367C 261.167,367.667 259.833,367.667 258.5,367C 259.833,366 259.833,365 258.5,364C 264.326,364.944 266.326,362.778 264.5,357.5C 267.409,354.959 266.909,353.292 263,352.5C 262.517,351.552 262.351,350.552 262.5,349.5C 261.5,349.5 260.5,349.5 259.5,349.5C 259.271,351.433 258.438,353.1 257,354.5C 256.706,349.441 255.539,349.274 253.5,354C 254.479,355.779 254.146,357.445 252.5,359C 254.807,359.271 255.974,358.105 256,355.5C 257.578,356.711 257.745,358.045 256.5,359.5C 255.522,359.977 254.689,360.643 254,361.5C 251.974,361.085 250.474,360.085 249.5,358.5C 249.855,355.933 250.521,353.433 251.5,351C 249.808,348.065 249.142,344.898 249.5,341.5C 256.863,341.169 264.197,341.503 271.5,342.5C 273.374,348.12 275.041,353.787 276.5,359.5 Z M 260.5,353.5 C 262.267,355.792 263.267,358.458 263.5,361.5C 261.801,361.66 260.134,361.494 258.5,361C 259.554,358.618 260.221,356.118 260.5,353.5 Z"/></g>
<g><path style="opacity:1" fill="#067257" d="M 299.5,367.5 C 298.504,367.586 297.671,367.252 297,366.5C 296.296,364.722 295.796,362.888 295.5,361C 296.445,358.911 296.445,356.911 295.5,355C 296.449,354.383 297.282,354.549 298,355.5C 298.866,353.104 298.366,352.437 296.5,353.5C 293.788,350.317 291.122,349.817 288.5,352C 288.833,352.333 289.167,352.667 289.5,353C 288.313,354.019 287.313,355.186 286.5,356.5C 288.031,357.613 289.031,359.113 289.5,361C 288.76,363.565 287.426,365.731 285.5,367.5C 283.492,358.37 285.826,350.537 292.5,344C 297.951,340.936 303.451,340.769 309,343.5C 309.5,343 310,342.5 310.5,342C 313.482,341.502 316.482,341.335 319.5,341.5C 319.5,346.833 319.5,352.167 319.5,357.5C 316.102,357.82 312.768,357.487 309.5,356.5C 305.897,349.872 302.397,349.872 299,356.5C 298.322,360.221 298.489,363.888 299.5,367.5 Z"/></g>
<g><path style="opacity:1" fill="#057257" d="M 345.5,356.5 C 350.527,357.846 354.194,360.846 356.5,365.5C 351.151,362.507 346.151,359.673 341.5,357C 339.866,356.506 338.199,356.34 336.5,356.5C 336.561,358.592 337.561,360.092 339.5,361C 338.638,363.734 337.805,363.901 337,361.5C 335.355,361.693 333.521,361.86 331.5,362C 334.684,362.754 337.351,364.254 339.5,366.5C 333.57,365.803 328.403,363.47 324,359.5C 319.778,349.938 322.612,343.771 332.5,341C 337.53,340.216 342.03,341.382 346,344.5C 346.483,343.552 346.649,342.552 346.5,341.5C 349.833,341.5 353.167,341.5 356.5,341.5C 356.5,346.5 356.5,351.5 356.5,356.5C 352.833,356.5 349.167,356.5 345.5,356.5 Z M 345.5,356.5 C 342.689,356.174 340.022,355.341 337.5,354C 336.399,351.708 337.232,350.208 340,349.5C 343.91,350.24 345.744,352.573 345.5,356.5 Z"/></g>
<g><path style="opacity:1" fill="#057257" d="M 228.5,342.5 C 225.813,342.336 223.146,342.503 220.5,343C 220.833,343.333 221.167,343.667 221.5,344C 218.88,347.095 216.38,346.929 214,343.5C 213.667,343.833 213.333,344.167 213,344.5C 212.481,343.484 211.647,342.818 210.5,342.5C 208.292,343.272 208.625,344.105 211.5,345C 210.892,347.184 211.559,349.184 213.5,351C 215.483,350.889 217.483,350.389 219.5,349.5C 220.5,349.833 221.5,350.167 222.5,350.5C 222.291,351.086 221.957,351.586 221.5,352C 223.513,352.875 223.513,354.209 221.5,356C 223.518,357.955 223.185,359.789 220.5,361.5C 219.774,358.821 218.941,356.154 218,353.5C 217.059,356.154 216.226,358.821 215.5,361.5C 217.369,362.165 219.369,362.831 221.5,363.5C 220.152,363.45 218.652,363.783 217,364.5C 216.54,366.714 217.207,367.381 219,366.5C 221.48,368.166 224.313,368.999 227.5,369C 224.456,369.359 224.122,370.026 226.5,371C 223.833,372.333 223.833,373.667 226.5,375C 224.598,375.199 223.098,376.033 222,377.5C 220.108,376.383 219.275,374.716 219.5,372.5C 220.833,372.5 222.167,372.5 223.5,372.5C 223.5,371.5 223.5,370.5 223.5,369.5C 219.833,369.5 216.167,369.5 212.5,369.5C 212.5,370.5 212.5,371.5 212.5,372.5C 213.833,372.5 215.167,372.5 216.5,372.5C 216.5,374.833 216.5,377.167 216.5,379.5C 210.5,379.5 204.5,379.5 198.5,379.5C 198.5,377.167 198.5,374.833 198.5,372.5C 199.822,372.67 200.989,372.337 202,371.5C 204.068,364.464 206.234,357.464 208.5,350.5C 206.74,347.788 206.073,344.788 206.5,341.5C 214.019,341.175 221.352,341.508 228.5,342.5 Z M 220.5,361.5 C 218.833,361.5 217.167,361.5 215.5,361.5C 216.226,358.821 217.059,356.154 218,353.5C 218.941,356.154 219.774,358.821 220.5,361.5 Z"/></g>
<g><path style="opacity:1" fill="#037457" d="M 356.5,365.5 C 358.397,375.787 353.897,380.787 343,380.5C 339.126,380.813 335.626,379.813 332.5,377.5C 329.101,379.312 325.434,379.979 321.5,379.5C 321.5,374.833 321.5,370.167 321.5,365.5C 325.167,365.5 328.833,365.5 332.5,365.5C 332.792,369.004 334.792,370.671 338.5,370.5C 343.347,370.017 343.68,368.684 339.5,366.5C 337.351,364.254 334.684,362.754 331.5,362C 333.521,361.86 335.355,361.693 337,361.5C 337.805,363.901 338.638,363.734 339.5,361C 337.561,360.092 336.561,358.592 336.5,356.5C 338.199,356.34 339.866,356.506 341.5,357C 346.151,359.673 351.151,362.507 356.5,365.5 Z"/></g>
<g><path style="opacity:1" fill="#047358" d="M 141.5,341.5 C 147.833,341.5 154.167,341.5 160.5,341.5C 160.5,344.167 160.5,346.833 160.5,349.5C 159.167,349.5 157.833,349.5 156.5,349.5C 156.5,356.833 156.5,364.167 156.5,371.5C 157.833,371.5 159.167,371.5 160.5,371.5C 160.5,374.167 160.5,376.833 160.5,379.5C 154.167,379.5 147.833,379.5 141.5,379.5C 141.5,376.833 141.5,374.167 141.5,371.5C 142.5,371.5 143.5,371.5 144.5,371.5C 144.5,364.167 144.5,356.833 144.5,349.5C 143.5,349.5 142.5,349.5 141.5,349.5C 141.5,346.833 141.5,344.167 141.5,341.5 Z"/></g>
<g><path style="opacity:1" fill="#037257" d="M 276.5,359.5 C 278.279,363.595 279.612,367.928 280.5,372.5C 281.833,372.5 283.167,372.5 284.5,372.5C 284.5,374.833 284.5,377.167 284.5,379.5C 277.167,379.5 269.833,379.5 262.5,379.5C 262.5,377.167 262.5,374.833 262.5,372.5C 264.199,372.66 265.866,372.494 267.5,372C 267.043,371.586 266.709,371.086 266.5,370.5C 262.893,369.511 259.226,369.177 255.5,369.5C 255.5,370.5 255.5,371.5 255.5,372.5C 256.833,372.5 258.167,372.5 259.5,372.5C 259.5,374.833 259.5,377.167 259.5,379.5C 246.167,379.5 232.833,379.5 219.5,379.5C 225.979,378.509 232.646,378.176 239.5,378.5C 239.296,376.315 238.63,374.315 237.5,372.5C 240.119,372.768 242.619,372.435 245,371.5C 246.436,367.02 247.936,362.687 249.5,358.5C 250.474,360.085 251.974,361.085 254,361.5C 254.689,360.643 255.522,359.977 256.5,359.5C 257.745,358.045 257.578,356.711 256,355.5C 255.974,358.105 254.807,359.271 252.5,359C 254.146,357.445 254.479,355.779 253.5,354C 255.539,349.274 256.706,349.441 257,354.5C 258.438,353.1 259.271,351.433 259.5,349.5C 260.5,349.5 261.5,349.5 262.5,349.5C 262.351,350.552 262.517,351.552 263,352.5C 266.909,353.292 267.409,354.959 264.5,357.5C 266.326,362.778 264.326,364.944 258.5,364C 259.833,365 259.833,366 258.5,367C 259.833,367.667 261.167,367.667 262.5,367C 263.749,365.176 264.915,365.343 266,367.5C 268.24,364.833 269.74,365.333 270.5,369C 268.071,369.451 267.904,370.285 270,371.5C 271.117,370.051 271.784,368.384 272,366.5C 274.879,364.571 276.379,362.237 276.5,359.5 Z M 260.5,353.5 C 260.221,356.118 259.554,358.618 258.5,361C 260.134,361.494 261.801,361.66 263.5,361.5C 263.267,358.458 262.267,355.792 260.5,353.5 Z"/></g>
<g><path style="opacity:1" fill="#047357" d="M 299.5,367.5 C 304.848,371.807 309.682,371.14 314,365.5C 316.35,367.683 318.517,370.016 320.5,372.5C 316.383,377.975 310.883,380.642 304,380.5C 294.365,381.024 288.199,376.69 285.5,367.5C 287.426,365.731 288.76,363.565 289.5,361C 289.031,359.113 288.031,357.613 286.5,356.5C 287.313,355.186 288.313,354.019 289.5,353C 289.167,352.667 288.833,352.333 288.5,352C 291.122,349.817 293.788,350.317 296.5,353.5C 298.366,352.437 298.866,353.104 298,355.5C 297.282,354.549 296.449,354.383 295.5,355C 296.445,356.911 296.445,358.911 295.5,361C 295.796,362.888 296.296,364.722 297,366.5C 297.671,367.252 298.504,367.586 299.5,367.5 Z"/></g>
<g><path style="opacity:1" fill="#15755a" d="M 138.5,395.5 C 141.833,395.5 145.167,395.5 148.5,395.5C 148.5,396.5 148.5,397.5 148.5,398.5C 147.167,398.5 145.833,398.5 144.5,398.5C 144.5,401.5 144.5,404.5 144.5,407.5C 143.5,407.5 142.5,407.5 141.5,407.5C 141.5,404.5 141.5,401.5 141.5,398.5C 140.5,398.5 139.5,398.5 138.5,398.5C 138.5,397.5 138.5,396.5 138.5,395.5 Z"/></g>
<g><path style="opacity:1" fill="#0d735a" d="M 164.5,395.5 C 167.167,395.5 169.833,395.5 172.5,395.5C 172.5,396.5 172.5,397.5 172.5,398.5C 165.833,399.167 165.833,399.833 172.5,400.5C 172.5,401.5 172.5,402.5 172.5,403.5C 170.833,403.5 169.167,403.5 167.5,403.5C 167.5,404.833 167.5,406.167 167.5,407.5C 166.5,407.5 165.5,407.5 164.5,407.5C 164.5,403.5 164.5,399.5 164.5,395.5 Z"/></g>
<g><path style="opacity:1" fill="#13765f" d="M 176.5,395.5 C 179.167,395.5 181.833,395.5 184.5,395.5C 184.5,396.5 184.5,397.5 184.5,398.5C 177.833,399.167 177.833,399.833 184.5,400.5C 184.5,401.5 184.5,402.5 184.5,403.5C 182.833,403.5 181.167,403.5 179.5,403.5C 179.5,404.833 179.5,406.167 179.5,407.5C 178.5,407.5 177.5,407.5 176.5,407.5C 176.5,403.5 176.5,399.5 176.5,395.5 Z"/></g>
<g><path style="opacity:1" fill="#14725e" d="M 311.5,395.5 C 314.665,394.964 317.331,395.797 319.5,398C 317.272,399.081 314.939,399.581 312.5,399.5C 311.035,401.945 311.535,403.945 314,405.5C 314.5,405 315,404.5 315.5,404C 314.027,403.29 313.36,402.124 313.5,400.5C 315.5,400.5 317.5,400.5 319.5,400.5C 319.5,402.833 319.5,405.167 319.5,407.5C 311.204,410.036 307.704,407.036 309,398.5C 309.698,397.309 310.531,396.309 311.5,395.5 Z"/></g>
<g><path style="opacity:1" fill="#12765e" d="M 335.5,395.5 C 338.863,395.513 341.03,397.179 342,400.5C 342.494,398.866 342.66,397.199 342.5,395.5C 343.833,395.5 345.167,395.5 346.5,395.5C 346.5,399.5 346.5,403.5 346.5,407.5C 342.425,407.601 339.925,405.601 339,401.5C 338.505,403.473 338.338,405.473 338.5,407.5C 337.5,407.5 336.5,407.5 335.5,407.5C 335.5,403.5 335.5,399.5 335.5,395.5 Z"/></g>
<g><path style="opacity:1" fill="#0e7159" d="M 252.5,395.5 C 255.833,395.5 259.167,395.5 262.5,395.5C 262.5,396.5 262.5,397.5 262.5,398.5C 261.5,398.5 260.5,398.5 259.5,398.5C 259.5,401.5 259.5,404.5 259.5,407.5C 258.167,407.5 256.833,407.5 255.5,407.5C 255.5,404.5 255.5,401.5 255.5,398.5C 254.5,398.5 253.5,398.5 252.5,398.5C 252.5,397.5 252.5,396.5 252.5,395.5 Z"/></g>
<g><path style="opacity:1" fill="#11755e" d="M 195.5,395.5 C 196.873,395.343 198.207,395.51 199.5,396C 200.667,397.833 201.833,399.667 203,401.5C 203.495,399.527 203.662,397.527 203.5,395.5C 204.5,395.5 205.5,395.5 206.5,395.5C 206.5,399.5 206.5,403.5 206.5,407.5C 205.127,407.657 203.793,407.49 202.5,407C 199.577,401.161 198.243,401.327 198.5,407.5C 197.5,407.5 196.5,407.5 195.5,407.5C 195.5,403.5 195.5,399.5 195.5,395.5 Z"/></g>
<g><path style="opacity:1" fill="#16735c" d="M 363.5,395.5 C 366.5,395.5 369.5,395.5 372.5,395.5C 372.5,396.5 372.5,397.5 372.5,398.5C 366.627,398.598 366.294,399.598 371.5,401.5C 370.311,402.429 368.978,402.762 367.5,402.5C 367.5,403.5 367.5,404.5 367.5,405.5C 369.288,405.215 370.955,405.548 372.5,406.5C 369.572,407.484 366.572,407.817 363.5,407.5C 363.5,403.5 363.5,399.5 363.5,395.5 Z"/></g>
<g><path style="opacity:1" fill="#0f755b" d="M 153.5,395.5 C 155.144,395.286 156.644,395.62 158,396.5C 159.068,399.871 160.235,403.204 161.5,406.5C 161,406.833 160.5,407.167 160,407.5C 158.604,406.606 157.104,405.939 155.5,405.5C 153.664,406.933 151.664,407.433 149.5,407C 151.53,403.411 152.863,399.578 153.5,395.5 Z"/></g>
<g><path style="opacity:1" fill="#12735c" d="M 265.5,395.5 C 268.5,395.5 271.5,395.5 274.5,395.5C 274.5,396.5 274.5,397.5 274.5,398.5C 267.338,398.613 267.005,399.613 273.5,401.5C 266.638,403.94 266.971,405.606 274.5,406.5C 271.572,407.484 268.572,407.817 265.5,407.5C 265.5,403.5 265.5,399.5 265.5,395.5 Z"/></g>
<g><path style="opacity:1" fill="#16725b" d="M 301.5,395.5 C 302.5,395.5 303.5,395.5 304.5,395.5C 304.5,399.5 304.5,403.5 304.5,407.5C 303.5,407.5 302.5,407.5 301.5,407.5C 301.5,403.5 301.5,399.5 301.5,395.5 Z"/></g>
<g><path style="opacity:1" fill="#10755d" d="M 323.5,395.5 C 326.167,395.5 328.833,395.5 331.5,395.5C 331.5,396.5 331.5,397.5 331.5,398.5C 324.951,398.907 324.951,399.907 331.5,401.5C 329.955,402.452 328.288,402.785 326.5,402.5C 326.5,403.5 326.5,404.5 326.5,405.5C 328.288,405.215 329.955,405.548 331.5,406.5C 328.914,407.48 326.247,407.813 323.5,407.5C 323.5,403.5 323.5,399.5 323.5,395.5 Z"/></g>
<g><path style="opacity:1" fill="#16745d" d="M 128.5,395.5 C 130.527,395.338 132.527,395.505 134.5,396C 135.821,397.545 135.488,398.711 133.5,399.5C 132.232,398.572 130.899,398.405 129.5,399C 135.623,400.01 136.956,403.01 133.5,408C 130.551,408.847 128.218,408.014 126.5,405.5C 127.682,403.355 129.182,403.355 131,405.5C 131.5,405 132,404.5 132.5,404C 126.433,403.167 125.1,400.333 128.5,395.5 Z"/></g>
<g><path style="opacity:1" fill="#087159" d="M 187.5,395.5 C 188.833,395.5 190.167,395.5 191.5,395.5C 191.5,399.5 191.5,403.5 191.5,407.5C 190.167,407.5 188.833,407.5 187.5,407.5C 187.5,403.5 187.5,399.5 187.5,395.5 Z"/></g>
<g><path style="opacity:1" fill="#12725b" d="M 238.5,395.5 C 239.873,395.343 241.207,395.51 242.5,396C 243.667,397.833 244.833,399.667 246,401.5C 246.495,399.527 246.662,397.527 246.5,395.5C 247.5,395.5 248.5,395.5 249.5,395.5C 249.5,399.5 249.5,403.5 249.5,407.5C 248.127,407.657 246.793,407.49 245.5,407C 244.333,405.167 243.167,403.333 242,401.5C 241.505,403.473 241.338,405.473 241.5,407.5C 240.5,407.5 239.5,407.5 238.5,407.5C 238.5,403.5 238.5,399.5 238.5,395.5 Z"/></g>
<g><path style="opacity:1" fill="#14725c" d="M 352.5,395.5 C 354.527,395.338 356.527,395.505 358.5,396C 359.973,396.71 360.64,397.876 360.5,399.5C 358.488,398.986 356.488,398.82 354.5,399C 352.972,401.518 353.306,403.685 355.5,405.5C 356.85,404.05 358.516,403.383 360.5,403.5C 359.18,408.429 356.18,409.596 351.5,407C 348.785,402.919 349.119,399.085 352.5,395.5 Z"/></g>
<g><path style="opacity:1" fill="#12755f" d="M 212.5,395.5 C 214.857,395.337 217.19,395.503 219.5,396C 220.337,397.011 220.67,398.178 220.5,399.5C 213.345,397.539 211.845,399.539 216,405.5C 216.5,405 217,404.5 217.5,404C 216.027,403.29 215.36,402.124 215.5,400.5C 217.5,400.5 219.5,400.5 221.5,400.5C 221.5,402.833 221.5,405.167 221.5,407.5C 210.814,409.487 207.814,405.487 212.5,395.5 Z"/></g>
<g><path style="opacity:1" fill="#0f7563" d="M 231.5,395.5 C 232.5,395.5 233.5,395.5 234.5,395.5C 234.5,399.5 234.5,403.5 234.5,407.5C 233.5,407.5 232.5,407.5 231.5,407.5C 231.5,403.5 231.5,399.5 231.5,395.5 Z"/></g>
<g><path style="opacity:1" fill="#11745b" d="M 289.5,395.5 C 290.5,395.5 291.5,395.5 292.5,395.5C 292.5,398.833 292.5,402.167 292.5,405.5C 294.288,405.215 295.955,405.548 297.5,406.5C 294.914,407.48 292.247,407.813 289.5,407.5C 289.5,403.5 289.5,399.5 289.5,395.5 Z"/></g>
<g><path style="opacity:1" fill="#0d725a" d="M 277.5,395.5 C 278.833,395.5 280.167,395.5 281.5,395.5C 281.5,398.833 281.5,402.167 281.5,405.5C 283.288,405.215 284.955,405.548 286.5,406.5C 283.572,407.484 280.572,407.817 277.5,407.5C 277.5,403.5 277.5,399.5 277.5,395.5 Z"/></g>
</svg>
